<?xml version="1.0" encoding="utf-8"?>
<!-- Generator: Adobe Illustrator 23.1.1, SVG Export Plug-In . SVG Version: 6.00 Build 0)  -->
<svg version="1.1" id="Group_1876" xmlns="http://www.w3.org/2000/svg" xmlns:xlink="http://www.w3.org/1999/xlink" x="0px" y="0px"
	 viewBox="0 0 44.3 57.5" style="enable-background:new 0 0 44.3 57.5;" xml:space="preserve">
<style type="text/css">
	.st0{fill:#7292FD;}
</style>
<g>
	<path class="st0" d="M40.8,27.8l-0.6-0.4c-2.2-5.3-6.9-9.6-12.4-11.3c0,0,0.1-1.1-0.1-2c1-2.1,2.1-4.3,3.2-6.4
		c0.6-1.2,0.5-1.5-0.7-2.1C26.7,3.8,23.1,2,19.6,0.3c-0.8-0.4-1.3-0.3-1.8,0.6c-1.1,2.2-2.4,4.8-3.5,7L14.1,8
		c-3.1,2.3-4.5,5.6-4.3,8.7l-0.3,0.7c-1.1,2.2-2.2,4.4-3.3,6.6c-0.5,1-0.4,1.4,0.7,1.9c0.7,0.4,1.5,0.7,2.2,1.1
		c-0.7,1.4-1.3,2.6-1.9,3.9c-0.4,0.8-0.3,1.2,0.5,1.6c1.4,0.7,2.7,1.4,4.1,2.1c0.1,0.1,0.2,0.1,0.3,0.1c0.5,0.2,1.1-0.1,1.3-0.6
		c0.4-0.7,0.7-1.5,1.1-2.2c0.3-0.6,0.6-1.2,0.9-1.7c0.8,0.4,1.5,0.8,2.2,1.1c1.1,0.5,1.4,0.4,2-0.6c1.1-2.2,2.2-4.5,3.3-6.7
		c0,0,1.2-0.3,2.1-1c0.3,0.1,0.6,0.1,0.9,0.2c3,0.9,5.5,2.9,7,5.6c-0.2,0.2-0.3,0.3-0.4,0.4c-0.1,0.1-0.1,0.1-0.2,0.2
		c-2.4,2.7-2.2,6.8,0.5,9.3c0,0,0,0,0,0c0,0,0.4,0.4,0.6,0.5L33,39.9c-2.3,4.5-7.2,7.1-12.2,6.4c-1.1-0.2-2.1-0.5-3.1-0.8l-0.5-0.2
		c0,0,0.3,0,0.6,0c1.6-0.2,1.7-0.3,1.7-1.9c0-1.2,0-2.3,0-3.5c0-0.9-0.3-1.4-1.3-1.4c-5.6,0-11.2,0-16.8,0c-0.9,0-1.2,0.4-1.2,1.2
		c0,1.4,0,2.8,0,4.2c0,0.9,0.4,1.3,1.3,1.3c1.4,0,2.9,0,4.3,0c0.4,0,0.8,0.2,1,0.5c1.2,1.7,2.6,3.1,4.3,4.3c0.2,0.1,0.3,0.3,0.5,0.5
		c-0.3,0-0.4,0-0.5,0c-1.1,0-1.4,0.4-1.4,1.5c0,1.4,0,2.7,0,4.1c0,0.1,0,0.2,0,0.3c0.1,0.6,0.6,1,1.2,0.9c8.3,0,16.5,0,24.8,0
		c0.8,0,1.2-0.4,1.2-1.2c0-1.4,0-2.9,0-4.3c0-0.1,0-0.2,0-0.3c-0.1-0.6-0.6-1-1.2-0.9c-0.8,0-1.5,0-2.3,0c0-0.1,0-0.1,0-0.2
		c0.1-0.1,0.3-0.2,0.4-0.3c3.3-2.4,5.8-5.8,7-9.7l0.2-0.8c0,0,0.7-0.6,0.8-0.7C45.4,35.7,45.2,30.5,40.8,27.8z M11.9,32.5
		c-0.9-0.4-1.7-0.9-2.6-1.3c0.5-1.1,1-2.1,1.6-3.2c0.9,0.4,1.7,0.8,2.6,1.3h0C13,30.4,12.5,31.4,11.9,32.5z M18,29.3
		c-3.2-1.6-6.4-3.2-9.7-4.8c0.8-1.6,1.5-3.1,2.3-4.7c0.9,1.7,2.3,3.1,4,4c1.7,0.9,3.7,1.2,5.6,0.8L18,29.3z M25.5,16.2
		c-0.1,3.7-3.3,6.7-7,6.5c-0.1,0-0.1,0-0.2,0c-3.7-0.1-6.7-3.2-6.6-6.9c0-0.1,0-0.3,0-0.4c0.2-3.7,3.3-6.6,7-6.5c0.1,0,0.2,0,0.3,0
		c3.7,0.1,6.6,3.2,6.5,6.9h0C25.5,16,25.5,16.1,25.5,16.2z M17,7c0.8-1.6,1.5-3,2.3-4.6L29,7.2c-0.8,1.6-1.6,3.1-2.4,4.7
		C24.4,8.2,21.3,6.5,17,7z M25.8,21.1c0.5-1,1-2,1.5-3c3.4,0.3,9.5,5.4,10.3,8.7c0,0-1.6-0.1-3.2,0.7C32.5,24.4,29.4,22.1,25.8,21.1
		z M2.1,43.3v-2.7h15.2v2.7H2.1z M34.7,52.7l0,2.6H11.7v-2.6H34.7z M37.8,42.3c-1.8,3.6-4.8,6.5-8.6,8.1c-0.3,0.1-0.7,0.2-1.1,0.2
		c-3.9,0-7.8,0-11.7,0c-0.2,0-0.5,0-0.7-0.1c-2.7-1.1-5.1-2.9-7-5.2H14c0,0,0.9,1.1,2.3,1.7c7.1,3,15.2,0.4,18.6-6.5
		c0.1-0.1,0.1-0.3,0.2-0.4h0c0,0,1.2,0.5,3.5,0.3C38.3,41,38.1,41.8,37.8,42.3z M42.2,34.2c-0.1,2.6-2.3,4.5-4.9,4.4
		c-2.6,0-4.7-2.2-4.7-4.8c0-2.7,2.1-4.8,4.8-4.9c0.1,0,0.2,0,0.4,0c2.6,0.1,4.6,2.3,4.5,4.8h0C42.2,33.9,42.2,34,42.2,34.2z"/>
	<path class="st0" d="M37.4,30.9c-1.6,0-3,1.3-3,3s1.3,3,3,3c1.6,0,3-1.3,3-3S39,30.9,37.4,30.9z M37.4,34.9c-0.6,0-1.1-0.5-1.1-1.1
		c0-0.6,0.5-1.1,1.1-1.1c0.6,0,1.1,0.5,1.1,1.1C38.5,34.4,38,34.9,37.4,34.9z"/>
	<path class="st0" d="M18.6,12c-2.1,0-3.8,1.7-3.8,3.8s1.7,3.8,3.8,3.8c2.1,0,3.8-1.7,3.8-3.8S20.7,12,18.6,12z M18.6,17.2
		c-0.8,0-1.4-0.6-1.4-1.4c0-0.8,0.6-1.4,1.4-1.4c0.8,0,1.4,0.6,1.4,1.4C20,16.6,19.3,17.2,18.6,17.2z"/>
</g>
</svg>
