<svg xmlns="http://www.w3.org/2000/svg" width="51.096" height="12.903" viewBox="0 0 51.096 12.903">
    <defs>
        <style>
            .cls-1{fill:#f9fafd}
        </style>
    </defs>
    <g id="Group_1973" data-name="Group 1973" transform="translate(-721 -539.822)">
        <g id="Group_1968" data-name="Group 1968" transform="translate(721 539.822)">
            <path id="Path_1082" d="M.509 77.384c.314-.592.538-1.224.8-1.84q2.118-5.051 4.217-10.108A.424.424 0 0 1 6 65.128c.7.015 1.4.021 2.1 0a.47.47 0 0 1 .524.34q2.18 5.058 4.38 10.106l.213.486c.125-.065.132-.188.173-.285q2.144-5.123 4.275-10.252a.539.539 0 0 1 .612-.395c.711.025 1.425.013 2.136 0a.321.321 0 0 1 .347.228q2.567 5.934 5.149 11.863c.093.215.079.283-.175.278a57.975 57.975 0 0 0-2.043 0 .312.312 0 0 1-.343-.227c-.3-.746-.623-1.485-.919-2.232a.368.368 0 0 0-.406-.276c-1.033.012-2.065 0-3.1.009-.225 0-.312-.056-.3-.293.016-.5.014-.992 0-1.487 0-.213.063-.288.281-.285.764.011 1.528 0 2.292 0 .111 0 .279.047.182-.183-.7-1.683-1.4-3.369-2.132-5.119-.068.159-.116.262-.157.367q-1.839 4.713-3.675 9.429a.4.4 0 0 1-.447.3 148.734 148.734 0 0 0-3.406 0 .367.367 0 0 1-.411-.269c-.288-.729-.612-1.444-.894-2.175a.4.4 0 0 0-.458-.292c-1.011.012-2.023 0-3.034.012-.265 0-.334-.081-.324-.333a21.39 21.39 0 0 0 0-1.455c-.006-.22.07-.283.283-.279.753.011 1.508 0 2.261.006.19 0 .293-.009.19-.252-.687-1.624-1.361-3.253-2.041-4.881-.015-.036-.04-.069-.089-.155l-.223.562-3.6 9.224a.383.383 0 0 1-.421.287c-.764-.013-1.528 0-2.29.007z" class="cls-1" data-name="Path 1082" transform="translate(-.509 -64.872)"/>
            <path id="Path_1083" d="M29.922 64.908c.269.061.537.117.8.182a6.41 6.41 0 0 1 3.122 1.8c.154.159.2.259-.013.426-.466.359-.913.741-1.353 1.133-.176.157-.267.145-.437-.022a4.042 4.042 0 0 0-4.483-.9 4.152 4.152 0 0 0-2.443 3.942 4.069 4.069 0 0 0 6.82 2.95c.2-.159.3-.148.479.013.411.375.83.744 1.273 1.082.262.2.2.321 0 .512a6.434 6.434 0 0 1-3.316 1.674 6.527 6.527 0 0 1-7.225-3.953 6.454 6.454 0 0 1 4.8-8.733c.124-.023.27 0 .37-.109z" class="cls-1" data-name="Path 1083" transform="translate(3.216 -64.908)"/>
            <path id="Path_1084" d="M46.645 76.9q-1.489-2.355-2.983-4.707c-.128-.2-.124-.313.1-.435a3.01 3.01 0 0 0 .85-.711 3.6 3.6 0 0 0 .686-3.01 3.094 3.094 0 0 0-1.998-2.485 5.339 5.339 0 0 0-2.05-.419c-1.517-.014-3.034 0-4.552-.009-.28 0-.347.093-.345.357.011 1.466 0 2.932 0 4.4 0 .436 0 .436-.442.436h-7.18c-.48 0-.48 0-.48.494v1.27c0 .423 0 .413.4.413h7.279c.426 0 .427 0 .427.415 0 1.4.008 2.808-.006 4.212 0 .29.068.4.376.389.536-.022 1.073-.006 1.61-.006.413 0 .416 0 .416-.409v-4.18c0-.419 0-.419.431-.42.557 0 1.115.016 1.673-.007a.557.557 0 0 1 .562.325c.9 1.481 1.817 2.954 2.728 4.429.082.131.148.265.345.264.764-.006 1.528 0 2.29 0 .174 0 .2-.067.11-.206s-.165-.267-.247-.4zm-3.719-7.7a1.432 1.432 0 0 1-.814.88 2.318 2.318 0 0 1-.955.231c-.71.014-1.421 0-2.133.008-.2 0-.274-.082-.271-.277.006-.433 0-.867 0-1.3v-1.3c0-.139 0-.279.2-.273a19.348 19.348 0 0 1 2.654.062 1.487 1.487 0 0 1 1.319 1.969z" class="cls-1" data-name="Path 1084" transform="translate(4.152 -64.872)"/>
        </g>
    </g>
</svg>
