<svg xmlns="http://www.w3.org/2000/svg" width="47.642" height="12.733" viewBox="0 0 47.642 12.733">
    <defs>
        <style>
            .cls-1{fill:#f9fafd}
        </style>
    </defs>
    <g id="Group_1972" data-name="Group 1972" transform="translate(-853 -539.822)">
        <g id="Group_1846" data-name="Group 1846" transform="translate(853 539.822)">
            <path id="Path_1153" d="M21.718 145.548a7.335 7.335 0 0 1-4.749-1.874c-.078-.067-.074-.1-.01-.18q.586-.685 1.16-1.379c.061-.073.094-.081.17-.016a6.132 6.132 0 0 0 2.125 1.257 4.452 4.452 0 0 0 2.367.157 1.73 1.73 0 0 0 1.081-.66 1.284 1.284 0 0 0-.34-1.821 4.7 4.7 0 0 0-1.29-.529c-.658-.189-1.331-.318-1.983-.529a6.392 6.392 0 0 1-1.616-.731A2.734 2.734 0 0 1 17.4 137.1a3.619 3.619 0 0 1 .26-1.835 3.436 3.436 0 0 1 1.988-1.823 5.318 5.318 0 0 1 2.17-.326 6.844 6.844 0 0 1 2.678.625 7.148 7.148 0 0 1 1.366.849c.061.048.066.077.021.14q-.529.735-1.049 1.478c-.052.074-.085.094-.169.031a5.977 5.977 0 0 0-2.138-1.056 3.558 3.558 0 0 0-1.873-.012 1.5 1.5 0 0 0-.936.685 1.268 1.268 0 0 0 .379 1.662 4.494 4.494 0 0 0 1.2.519c.623.2 1.267.316 1.891.506a6.583 6.583 0 0 1 1.785.788 2.823 2.823 0 0 1 1.3 2.344 3.612 3.612 0 0 1-.436 2.009 3.48 3.48 0 0 1-1.9 1.538 6.147 6.147 0 0 1-2.219.326z" class="cls-1" data-name="Path 1153" transform="translate(-4.252 -132.873)"/>
            <path id="Path_1154" d="M37.439 145.607a6.735 6.735 0 0 1-4.373-1.495 5.923 5.923 0 0 1-2.234-3.942 6.15 6.15 0 0 1 4.933-6.9 6.96 6.96 0 0 1 4.3.443 4.81 4.81 0 0 1 1.435.945c.175.171.173.173.025.365-.328.43-.658.859-.984 1.289-.046.061-.072.081-.14.018a4.544 4.544 0 0 0-2.8-1.166 4.3 4.3 0 0 0-1.927.243 3.6 3.6 0 0 0-1.944 1.751 4.5 4.5 0 0 0-.376 3.412 4.077 4.077 0 0 0 2.615 2.759 5.412 5.412 0 0 0 4.431-.529c.1-.065.187-.137.276-.21.038-.031.058-.035.088.009q.475.684.954 1.363c.048.068 0 .093-.035.127a5.327 5.327 0 0 1-1.961 1.178 6.718 6.718 0 0 1-2.027.341l-.256-.001z" class="cls-1" data-name="Path 1154" transform="translate(-7.479 -132.875)"/>
            <path id="Path_1155" d="M56.36 134.685a6.587 6.587 0 0 0-5.355-1.482 6.4 6.4 0 0 0-3.8 1.928 6.032 6.032 0 0 0-1.758 4.24c0 .219.015.436.04.652a5.928 5.928 0 0 0 1.732 3.6 6.561 6.561 0 0 0 5.012 1.981 6.339 6.339 0 0 0 3.825-1.36 6.091 6.091 0 0 0 .3-9.563zm-2.26 8.326a4.016 4.016 0 0 1-5.485-1.246 4.309 4.309 0 0 1-.773-2.452 4.139 4.139 0 0 1 8.166-.976 4.211 4.211 0 0 1-1.908 4.674z" class="cls-1" data-name="Path 1155" transform="translate(-10.894 -132.877)"/>
            <path id="Path_1156" d="M12.44 144.351l-3.14-6.269Q8 135.5 6.707 132.914l-.058-.112c-.021.038-.038.064-.051.091q-.153.3-.3.6Q5 136.083 3.7 138.672l-3.252 6.486c-.058.115-.058.116.071.116h2.255a.157.157 0 0 0 .168-.1c.312-.667.631-1.332.944-2a.143.143 0 0 1 .152-.094h5.206a.142.142 0 0 1 .149.1c.311.664.628 1.326.941 1.989a.158.158 0 0 0 .164.109q1.149-.007 2.3 0c.086 0 .106-.015.063-.1a46.136 46.136 0 0 1-.421-.827zm-4.123-3.159H4.978c-.123 0-.124 0-.077-.1l1.695-3.6a.747.747 0 0 1 .037-.067l.326.678 1.428 2.98c.052.108.052.109-.07.109z" class="cls-1" data-name="Path 1156" transform="translate(-.411 -132.802)"/>
        </g>
    </g>
</svg>
