<svg xmlns="http://www.w3.org/2000/svg" width="80.067" height="20.02" viewBox="0 0 80.067 20.02">
    <defs>
        <style>
            .cls-1{fill:#f9fafd}
        </style>
    </defs>
    <g id="Group_1975" data-name="Group 1975" transform="translate(-423 -536)">
        <g id="Group_1843" data-name="Group 1843" transform="translate(421.793 450.428)">
            <path id="Path_1126" d="M14.533 100.116c-.159-.011-.319-.017-.477-.034a1.043 1.043 0 0 1-1.042-.8 5.533 5.533 0 0 1-.213-1.107c-.071-.581-.123-1.165-.2-1.748a6.55 6.55 0 0 0-.339-1.43 2.2 2.2 0 0 0-1.575-1.433 6.194 6.194 0 0 0-1.4-.192c-.259-.009-.519-.027-.778-.041l-.007-.05a.371.371 0 0 1 .093-.043c.183-.029.367-.049.549-.08a5.521 5.521 0 0 0 1.926-.661 3.072 3.072 0 0 0 1.507-2.01 4.22 4.22 0 0 0 0-1.9 2.982 2.982 0 0 0-1.485-2 5.157 5.157 0 0 0-1.388-.537 11.285 11.285 0 0 0-2.851-.271c-.8.013-1.608.05-2.412.059-.612.008-1.225-.011-1.838-.022-.23 0-.46-.022-.689-.029-.192-.006-.383 0-.575-.007-.1 0-.14.044-.134.14v.077c0 .216 0 .217.209.218h1.284c.358 0 .371-.067.371.378v13.261c0 .248-.013.259-.261.259h-1.32c-.286 0-.284-.036-.28.3a.108.108 0 0 1 0 .019c0 .081.042.114.12.113h.383c.644-.02 1.289-.054 1.933-.06.7 0 1.392.016 2.088.029.242 0 .484.022.727.031h.383c.087 0 .132-.036.13-.124v-.211a.092.092 0 0 0-.1-.1H5.419c-.31 0-.311 0-.311-.3v-3.756-2.28c0-.228.014-.238.24-.238H7.36a6.864 6.864 0 0 1 1.313.116 1.974 1.974 0 0 1 1.5 1.15 4.524 4.524 0 0 1 .31.984c.141.677.151 1.368.227 2.052.06.544.112 1.091.2 1.63a7.119 7.119 0 0 0 .267.917.226.226 0 0 0 .262.168c.382-.022.765-.031 1.148-.046h.019a11.06 11.06 0 0 1 1.779.037c.283.019.314 0 .293-.278-.005-.126-.019-.141-.145-.15zM5.37 93.1c-.248 0-.262-.012-.262-.258v-3.18-3.141c0-.3 0-.3.31-.3.607 0 1.213-.008 1.82.007a3.971 3.971 0 0 1 1.489.309 2.635 2.635 0 0 1 1.6 2.033 5.177 5.177 0 0 1-.072 2.37 2.652 2.652 0 0 1-1.347 1.753 3.23 3.23 0 0 1-1.393.377c-.715.02-1.431.02-2.145.03z" class="cls-1" data-name="Path 1126" transform="translate(0 .023)"/>
            <path id="Path_1127" d="M36.045 100.155h-.939c-.387 0-.369.027-.369-.36v-8.242c0-.088-.008-.174-.013-.282a18.729 18.729 0 0 1-3.206 0c-.006.086-.012.136-.012.186 0 .207 0 .212.214.213h.978c.294 0 .294 0 .294.3v8.053a.121.121 0 0 1-.13.132h-2.073c-.361 0-.344.013-.344-.346V86.144c0-.394.077-.38-.393-.35a16.578 16.578 0 0 1-2.43 0 2.39 2.39 0 0 0-.268 0c-.126 0-.136.016-.141.149v.077c0 .151.012.163.164.164h1.017c.272 0 .308-.057.307.3V93.289c0 .07.024.154-.08.22-.033-.064-.064-.122-.092-.182-.118-.248-.221-.5-.354-.742a2.767 2.767 0 0 0-1.736-1.408 3.806 3.806 0 0 0-1.422-.108 3.5 3.5 0 0 0-2.278 1.175 4.815 4.815 0 0 0-1.159 2.682 7.476 7.476 0 0 0-.053 1.471 6.526 6.526 0 0 0 .391 1.923 3.766 3.766 0 0 0 1.244 1.714 3.871 3.871 0 0 0 2.86.722 2.7 2.7 0 0 0 1.862-1.061 4.193 4.193 0 0 0 .648-1.189c.026-.068.061-.13.092-.2l.05.009a1.751 1.751 0 0 1 .028.213v1.782c0 .074.011.148.017.226a1.3 1.3 0 0 0 .152.013c.331-.017.662-.041.993-.052.281-.009.562-.011.842 0 .4.011.791.054 1.185.051.5 0 1.008-.053 1.511-.057.627-.006 1.252.014 1.878.029.261.006.523.023.784.03.048 0 .133-.016.137-.036a.9.9 0 0 0 .011-.3c-.012-.079-.106-.058-.167-.059zM28.7 96.146a6.529 6.529 0 0 1-.544 2.509 3.185 3.185 0 0 1-.963 1.268 2.2 2.2 0 0 1-2.011.371 1.872 1.872 0 0 1-1.171-1.033 4.358 4.358 0 0 1-.39-1.277 13.923 13.923 0 0 1-.152-2.114 15.916 15.916 0 0 1 .118-1.968 4.1 4.1 0 0 1 .443-1.475 1.819 1.819 0 0 1 1.454-.963 2.255 2.255 0 0 1 2.1.885 4.584 4.584 0 0 1 .889 1.828 6.624 6.624 0 0 1 .227 1.969z" class="cls-1" data-name="Path 1127" transform="translate(2.253 .023)"/>
            <path id="Path_1128" d="M63.977 99.709a4.087 4.087 0 0 0-1.131-.344c-.649-.114-1.308-.127-1.961-.187-.489-.044-.98-.072-1.468-.124a2.014 2.014 0 0 1-.852-.263.731.731 0 0 1-.127-1.127 2.058 2.058 0 0 1 .651-.393.531.531 0 0 1 .319-.024 4.793 4.793 0 0 0 2 .017 3.658 3.658 0 0 0 1.639-.748 3.264 3.264 0 0 0 1.115-3.152 2.967 2.967 0 0 0-1.262-2.052c-.043-.032-.082-.072-.161-.143.113-.013.178-.027.243-.028h.94c.313 0 .312 0 .29-.308a.381.381 0 0 0-.027-.078c-.053 0-.1-.01-.152-.009-.619.022-1.238.049-1.856.063a1.13 1.13 0 0 1-.373-.062 4.445 4.445 0 0 0-2.731-.043 3.208 3.208 0 0 0-2.108 1.812 3.624 3.624 0 0 0-.28 1.609 3.034 3.034 0 0 0 .871 2.086 4.424 4.424 0 0 0 1.022.768c.057.032.138.043.148.148l-.2.093a4.413 4.413 0 0 0-.785.436 1.584 1.584 0 0 0-.123 2.439.858.858 0 0 1 .108.123c-.082.049-.149.086-.212.126-.224.146-.462.274-.671.441a2.041 2.041 0 0 0-.852 1.6 2.072 2.072 0 0 0 .7 1.691 3.158 3.158 0 0 0 1.064.593 8.809 8.809 0 0 0 3.935.263 5.141 5.141 0 0 0 2.055-.744 3.022 3.022 0 0 0 1.019-1.047 2.9 2.9 0 0 0 .272-2.078 1.886 1.886 0 0 0-1.059-1.354zm-5.5-4.847c-.029-.4-.047-.8-.036-1.2a4.7 4.7 0 0 1 .261-1.52 1.9 1.9 0 0 1 .585-.859 1.839 1.839 0 0 1 1.333-.359 2.212 2.212 0 0 1 .45.081 1.65 1.65 0 0 1 1.1 1.068 3.858 3.858 0 0 1 .237 1.06c.03.323.04.649.059.973a4.371 4.371 0 0 1-.172 1.4 2.937 2.937 0 0 1-.3.66 1.654 1.654 0 0 1-1.427.79 2.416 2.416 0 0 1-.7-.056 1.649 1.649 0 0 1-1.128-.982 3.148 3.148 0 0 1-.264-1.056zm5.217 8.849a3.636 3.636 0 0 1-1.491.711 6.02 6.02 0 0 1-1.437.2c-.121 0-.242.016-.334.022a5.05 5.05 0 0 1-1.9-.34 2.2 2.2 0 0 1-1.383-1.641 2.1 2.1 0 0 1 .413-1.784c.1-.126.214-.237.317-.359a.232.232 0 0 1 .27-.073c.309.079.619.153.933.206s.619.074.93.1c.521.042 1.043.077 1.564.113q.353.023.707.042a3.847 3.847 0 0 1 1.127.2 1.265 1.265 0 0 1 .911 1.1 1.655 1.655 0 0 1-.628 1.503z" class="cls-1" data-name="Path 1128" transform="translate(6.08 .548)"/>
            <path id="Path_1129" d="M22.343 99.63h-.9c-.3 0-.306 0-.306-.311v-5.5a5.74 5.74 0 0 0-.042-.705 2.619 2.619 0 0 0-1.84-2.3 5.975 5.975 0 0 0-1.519-.278 6.609 6.609 0 0 0-1.736.09 3.6 3.6 0 0 0-1.64.7 1.849 1.849 0 0 0-.729 1.609.765.765 0 0 0 .7.735 1.909 1.909 0 0 0 .478-.01.81.81 0 0 0 .742-.621 1.111 1.111 0 0 0 .024-.284c-.011-.319-.028-.637-.044-.955a.554.554 0 0 1 .25-.509 1.638 1.638 0 0 1 .421-.22 3.247 3.247 0 0 1 2 0 1.431 1.431 0 0 1 .971.884 2.672 2.672 0 0 1 .18.739c.038.521.036 1.045.044 1.569 0 .178-.019.191-.2.2-.592.037-1.184.071-1.775.113a9.45 9.45 0 0 0-1.548.246 5.141 5.141 0 0 0-1.4.545 2.655 2.655 0 0 0-1.26 2.887 2.239 2.239 0 0 0 1.24 1.613 3.775 3.775 0 0 0 2.476.331A2.708 2.708 0 0 0 19 98.553c.1-.219.169-.453.251-.681.021-.057.021-.126.128-.153.007.083.018.156.018.227v1.84c0 .073.009.148.016.249a17.672 17.672 0 0 1 3-.01.683.683 0 0 0 .128-.02c0-.07.009-.12.009-.171-.002-.202-.004-.203-.207-.204zm-3.259-1.824a3.751 3.751 0 0 1-.771 1.333 2.078 2.078 0 0 1-1.665.72 1.522 1.522 0 0 1-1.437-.994 3.4 3.4 0 0 1-.2-1.654 2.74 2.74 0 0 1 .193-.8 2.15 2.15 0 0 1 1.309-1.21 4.411 4.411 0 0 1 1.247-.274c.47-.036.941-.057 1.412-.077.207-.008.217.009.218.214s0 .422 0 .715a5.405 5.405 0 0 1-.305 2.026z" class="cls-1" data-name="Path 1129" transform="translate(1.326 .549)"/>
            <path id="Path_1130" d="M43.983 93.821a4.178 4.178 0 0 0-1.842-2.609 4.873 4.873 0 0 0-2.456-.7 5.235 5.235 0 0 0-1.481.151 4.084 4.084 0 0 0-3.014 2.654 5.705 5.705 0 0 0-.34 2.064 5.864 5.864 0 0 0 .272 1.885 4.048 4.048 0 0 0 2.543 2.679 5.338 5.338 0 0 0 3.4.092 4.036 4.036 0 0 0 2.745-2.545 5.864 5.864 0 0 0 .357-2.005 6.09 6.09 0 0 0-.184-1.666zM42.2 95.783a8.116 8.116 0 0 1-.3 2.134 3.3 3.3 0 0 1-.575 1.137 2.163 2.163 0 0 1-1.387.775 2.761 2.761 0 0 1-1.175-.066 2.186 2.186 0 0 1-1.363-1.141 4.613 4.613 0 0 1-.462-1.472 9.278 9.278 0 0 1-.117-1.719 9.171 9.171 0 0 1 .194-2.2 3.567 3.567 0 0 1 .649-1.477 2.181 2.181 0 0 1 1.505-.817 2.741 2.741 0 0 1 1.171.106 2.187 2.187 0 0 1 1.291 1.131 4.435 4.435 0 0 1 .43 1.322 10.807 10.807 0 0 1 .139 2.287z" class="cls-1" data-name="Path 1130" transform="translate(3.734 .548)"/>
            <path id="Path_1131" d="M54.95 91.314a4.82 4.82 0 0 0-2.618-.8 5.268 5.268 0 0 0-1.48.151 4.089 4.089 0 0 0-3.006 2.635 6.73 6.73 0 0 0-.1 3.878 4.163 4.163 0 0 0 1.529 2.222 4.649 4.649 0 0 0 2.54.857 5.517 5.517 0 0 0 1.69-.15 4.114 4.114 0 0 0 2.5-1.711 4.843 4.843 0 0 0 .791-2.429 6.536 6.536 0 0 0-.186-2.24 4.192 4.192 0 0 0-1.66-2.413zm-.114 4.786a6.179 6.179 0 0 1-.469 2.329 2.209 2.209 0 0 1-1.628 1.371 2.438 2.438 0 0 1-2.13-.468 2.466 2.466 0 0 1-.658-.907 4.781 4.781 0 0 1-.393-1.493c-.051-.513-.081-1.029-.1-1.324a10.5 10.5 0 0 1 .257-2.572 3.346 3.346 0 0 1 .668-1.363 2.178 2.178 0 0 1 1.447-.739 2.887 2.887 0 0 1 .912.041 2.111 2.111 0 0 1 1.388.94 3.885 3.885 0 0 1 .555 1.435 7.671 7.671 0 0 1 .16 1.578c-.006.39.008.779-.009 1.172z" class="cls-1" data-name="Path 1131" transform="translate(5.139 .548)"/>
            <path id="Path_1132" d="M74.27 90.856a1.268 1.268 0 0 0-.023-.133 15.071 15.071 0 0 1-2.823 0c-.006.086-.012.148-.012.21 0 .168.016.183.188.184h.69a1.694 1.694 0 0 1 .227.036c-.019.1-.027.177-.048.249-.149.489-.278.984-.456 1.461-.311.831-.653 1.65-.983 2.474q-.435 1.083-.874 2.166c-.027.067-.062.131-.1.206-.123-.138-2.8-6.373-2.822-6.569.072-.008.146-.022.219-.023h.92c.307 0 .322-.011.291-.327a.475.475 0 0 0-.026-.068c-.114.007-.227.018-.339.021-.269.008-.537.014-.805.017-.638.007-1.277.018-1.914.012-.4 0-.791-.034-1.187-.049-.033 0-.1.019-.1.034a.962.962 0 0 0 0 .3c.006.03.106.054.162.057.2.008.4.007.594 0a.221.221 0 0 1 .233.156c.091.224.2.443.294.665L67.5 96.3q.773 1.751 1.548 3.5a.409.409 0 0 1 .006.346c-.176.446-.339.9-.517 1.34s-.347.865-.545 1.285a2.133 2.133 0 0 1-.366.51.72.72 0 0 1-.7.214 3.658 3.658 0 0 1-.55-.159 2.347 2.347 0 0 0-.991-.176.666.666 0 0 0-.627.452 1.472 1.472 0 0 0-.064.585.77.77 0 0 0 .6.747 2.1 2.1 0 0 0 1.152-.029 2.408 2.408 0 0 0 1.244-.913 6.558 6.558 0 0 0 .822-1.489c.5-1.2.993-2.408 1.487-3.613q1.217-2.968 2.43-5.936a12.916 12.916 0 0 1 .845-1.674.315.315 0 0 1 .324-.18c.14.008.281 0 .422 0 .247.009.263-.01.25-.254z" class="cls-1" data-name="Path 1132" transform="translate(7.001 .572)"/>
            <path id="Path_1133" d="M47.786 100.155h-1.015c-.3 0-.3 0-.3-.31V87.234 85.95c0-.153-.012-.168-.163-.163-.21.006-.42.022-.63.033a15.552 15.552 0 0 1-2.085-.031c-.106-.009-.213 0-.341 0 0 .092-.009.149-.009.206 0 .173.008.181.186.182h.958c.319 0 .346-.061.346.342V99.991c-.01.128-.033.156-.164.161s-.281 0-.421 0h-.729c-.157 0-.166.013-.171.16v.1c.007.124.018.136.15.14h.249c.511-.021 1.021-.056 1.531-.059.6-.006 1.2.014 1.8.028.274.007.549.023.823.032.048 0 .133-.012.138-.032a.926.926 0 0 0 .018-.3c-.022-.084-.109-.066-.171-.066z" class="cls-1" data-name="Path 1133" transform="translate(4.665 .024)"/>
            <path id="Path_1134" d="M32.136 87.637a1.719 1.719 0 0 0 1.234 0 .875.875 0 0 0 .6-.81 2.2 2.2 0 0 0 0-.363.88.88 0 0 0-.529-.762 1.385 1.385 0 0 0-.669-.127 1.44 1.44 0 0 0-.724.137.807.807 0 0 0-.467.55 2.263 2.263 0 0 0-.044.548.864.864 0 0 0 .599.827z" class="cls-1" data-name="Path 1134" transform="translate(3.366)"/>
        </g>
    </g>
</svg>
