<svg xmlns="http://www.w3.org/2000/svg" width="56.619" height="13.698" viewBox="0 0 56.619 13.698">
    <defs>
        <style>
            .cls-1{fill:#f9fafd;fill-rule:evenodd}
        </style>
    </defs>
    <path id="Path_1061" d="M11.454.252l.066 3.707-.651.188c-.652-1.885-1.562-2.953-3.319-2.953H5.272q-.133 2.668-.131 5.34L6.7 6.473c.977 0 1.432-.754 1.627-1.823h.585v4.461H8.33c-.2-1.068-.651-1.822-1.627-1.822l-1.562-.063c0 1.634.064 2.952.131 3.77.13 1.194.455 1.76 1.3 1.822l.781.127v.5H0v-.5l.651-.127c.846-.062 1.171-.628 1.3-1.822a69.929 69.929 0 0 0 0-8.293C1.822 1.509 1.5 1 .651.88L0 .816V.253h11.454zM34.492 3.9c2.213 0 3.9 1.885 3.9 4.462 0 3.267-2.082 5.34-5.531 5.34a17.445 17.445 0 0 1-3.645-.44c.065-1.32.13-9.362 0-10.87-.131-.754-.325-1.068-.911-1.194l-.456-.064V.755L32.214 0c-.066.629-.066 2.451-.066 4.461a4.772 4.772 0 0 1 2.343-.566zm-19.329-.129c3.255 0 4.882 2.136 4.882 4.963a4.778 4.778 0 0 1-5.077 4.966c-3.254 0-4.88-2.137-4.88-4.964a4.777 4.777 0 0 1 5.075-4.965zM39.243 8.8a4.8 4.8 0 0 1 5.011-5.03c2.733 0 4.035 1.949 4.035 4.525h-6.053c-.064 2.324 1.107 4.021 3.45 4.021a3.416 3.416 0 0 0 2.213-.691l.26.314a4.94 4.94 0 0 1-3.9 1.76A4.753 4.753 0 0 1 39.243 8.8zm16.79-4.523l.066 2.45-.455.125c-.586-1.7-1.367-2.388-2.539-2.388a1.328 1.328 0 0 0-1.367 1.383c0 .817.65 1.257 2.473 1.948 1.692.628 2.408 1.383 2.408 2.7 0 1.947-1.626 3.2-4.164 3.2A10.609 10.609 0 0 1 49 13.133l-.065-2.765.455-.126c.717 1.885 1.628 2.576 2.864 2.576a1.486 1.486 0 0 0 1.627-1.445c0-.754-.457-1.194-2.082-1.759-1.563-.5-2.668-1.194-2.668-2.827s1.5-3.017 3.9-3.017a8.194 8.194 0 0 1 3.002.504zM28.5 4.022L27.464 6.6a2.605 2.605 0 0 0-3.059 0 43.881 43.881 0 0 0 .065 5.091c.066.753.261 1.13.911 1.193l.781.064v.5H20.11v-.5l.456-.064c.585-.063.846-.439.91-1.193a50.752 50.752 0 0 0 0-5.467c-.064-.817-.325-1.131-.91-1.194l-.457-.064v-.379l4.361-.816-.064 2.2C25.447 3.708 27.4 3.393 28.5 4.022zm4.5 8.985c1.366 0 2.342-1.948 2.342-4.462 0-2.01-.781-3.644-2.213-3.644a2.975 2.975 0 0 0-.976.189c-.064 3.267 0 6.974.066 7.854a3.01 3.01 0 0 0 .781.063zM14.968 4.4c-1.432 0-1.823 1.885-1.823 4.335 0 2.388.651 4.336 1.953 4.336 1.5 0 1.888-1.885 1.888-4.336.001-2.389-.65-4.335-2.018-4.335zm27.269 3.2l3.063-.06c0-1.257-.2-3.141-1.3-3.141S42.3 6.158 42.236 7.6z" class="cls-1" data-name="Path 1061"/>
</svg>
