<svg xmlns="http://www.w3.org/2000/svg" width="78.671" height="11.013" viewBox="0 0 78.671 11.013">
    <defs>
        <style>
            .cls-1{fill:#f9fafd}
        </style>
    </defs>
    <g id="Group_1837" data-name="Group 1837" transform="translate(.152 -44.463)">
        <path id="Path_1075" d="M39.976 48.364c.077-.147.021-.278.071-.4.062-.081.158-.065.245-.065.54 0 1.08-.005 1.621 0 .279 0 .291.014.293.284q.006.963 0 1.924c0 .255-.017.271-.271.273-.563.006-1.125 0-1.688.005a.38.38 0 0 1-.356-.2 1.817 1.817 0 0 0-1.232-.755.757.757 0 0 0-.9.353c-.094.173-.077.243.072.38a.8.8 0 0 0 .357.18c.972.248 1.892.649 2.842.962a2.352 2.352 0 0 1-.787 4.519 4.523 4.523 0 0 1-2.728-.572.243.243 0 0 0-.155-.054c-.014.016-.039.031-.042.047-.049.432-.049.432-.5.432h-1.586c-.257 0-.266-.012-.268-.27q-.006-.979 0-1.958c0-.26.014-.277.263-.278.619-.006 1.238 0 1.857 0a.3.3 0 0 1 .311.2 1.554 1.554 0 0 0 1.167.878 1.08 1.08 0 0 0 .755-.086.489.489 0 0 0 .3-.418c.012-.2-.146-.3-.307-.357a18.982 18.982 0 0 0-1.183-.386c-.3-.087-.613-.142-.922-.2a3.224 3.224 0 0 1-1.74-1.035 2.069 2.069 0 0 1-.495-1.266 1.085 1.085 0 0 0-.032-.332c-.3-.081-.306-.082-.431.232-.64 1.609-1.276 3.222-1.919 4.829-.211.529-.1.451-.669.455H30.13c-.3 0-.3 0-.407-.289-.394-1.066-.785-2.132-1.18-3.2-.037-.1-.042-.223-.154-.292a.874.874 0 0 0-.168.363c-.38 1.035-.755 2.072-1.133 3.107-.111.306-.114.308-.426.308-.653 0-1.306-.009-1.958.007a.407.407 0 0 1-.449-.3c-.666-1.611-1.351-3.215-2.015-4.828-.121-.294-.244-.523-.611-.469-.018 0-.039-.02-.059-.03a.288.288 0 0 1-.041-.194V48.18c0-.256.016-.27.266-.277s.517 0 .776 0h3.275c.34 0 .344.005.346.333v1.552a.511.511 0 0 1-.041.278c-.117.083-.28 0-.448.1.157.728.388 1.446.58 2.175l.085.005.744-2.174c-.192-.114-.387-.015-.575-.111v-2.095a.432.432 0 0 1 .331-.066h4.525c.359 0 .362 0 .364.352v1.519a.461.461 0 0 1-.049.3c-.154.082-.335 0-.529.089.191.74.459 1.462.708 2.206.3-.72.526-1.455.753-2.177-.09-.106-.186-.072-.272-.079a.566.566 0 0 1-.255-.037.272.272 0 0 1-.049-.2v-1.689c0-.258.017-.277.264-.278q1.333-.006 2.667 0c.231 0 .246.021.253.255.007.255 0 .512 0 .754.11.05.132-.02.157-.06a2.267 2.267 0 0 1 1.6-1.028 4.531 4.531 0 0 1 2.232.155 3.7 3.7 0 0 1 .739.382z" class="cls-1" data-name="Path 1075" transform="translate(-3.228 -.489)"/>
        <path id="Path_1076" d="M3.419 52.989a.25.25 0 0 1 .056.17v1.789c0 .169-.063.243-.238.242-1.08-.005-2.161 0-3.241-.007a.616.616 0 0 1-.131-.037c-.038-.706-.009-1.419-.017-2.112a.505.505 0 0 1 .356-.075c.291-.014.291-.013.3-.315v-.135-5.5a.8.8 0 0 0-.048-.412c-.172-.072-.371.005-.6-.073-.007-.654-.01-1.323.005-1.975a.425.425 0 0 1 .339-.076c1.2 0 2.409.005 3.612-.008a.457.457 0 0 1 .467.289q1.467 2.755 2.95 5.5c.058.108.121.214.186.331.024-.059 0 0 .039-.02.008 0 .019-.014.019-.021q.006-1.889.01-3.78a.233.233 0 0 0-.061-.182c-.238-.06-.512.012-.769-.042a9.571 9.571 0 0 1-.032-2.013 29.237 29.237 0 0 1 3.521-.026 9.257 9.257 0 0 1 .03 2.014c-.169.1-.373 0-.567.083a.8.8 0 0 0-.041.414v7.7c0 .516.032.476-.474.477-.9 0-1.8-.008-2.7.005a.45.45 0 0 1-.466-.287q-1.541-2.964-3.1-5.92c-.057-.108-.117-.214-.172-.316-.129.02-.083.107-.083.161q-.005 1.907 0 3.815c0 .306.006.3.33.312a1.738 1.738 0 0 1 .52.03z" class="cls-1" data-name="Path 1076"/>
        <path id="Path_1077" d="M59.912 50.1a.68.68 0 0 1-.2.025c-.336-.062-.462.12-.574.409-.623 1.616-1.266 3.226-1.9 4.837-.131.331-.133.332-.483.333H54.83c-.315 0-.317 0-.429-.306q-.58-1.584-1.156-3.171a1 1 0 0 0-.142-.312.631.631 0 0 0-.158.308l-1.168 3.166c-.116.314-.117.315-.457.316-.631 0-1.261-.015-1.891.007a.444.444 0 0 1-.491-.34c-.665-1.612-1.349-3.216-2.015-4.828-.112-.273-.227-.486-.571-.422-.029.005-.063-.018-.091-.027a.465.465 0 0 1-.048-.3v-1.52c0-.346 0-.35.363-.35H50.662c.113 0 .2.034.2.17v1.96c-.152.112-.3.036-.467.128.167.723.386 1.444.615 2.175.3-.715.545-1.438.78-2.168-.18-.123-.38-.01-.54-.107a.466.466 0 0 1-.042-.292v-1.52c0-.345 0-.348.365-.348H55.997c.327 0 .331.006.333.312v1.621a.328.328 0 0 1-.044.228c-.119.077-.267 0-.434.088.192.734.462 1.453.683 2.205a9.87 9.87 0 0 0 .781-2.192c-.181-.129-.417 0-.615-.1a.866.866 0 0 1-.026-.131v-1.79c0-.146.04-.238.206-.237.991.005 1.981.007 2.971.011a.2.2 0 0 1 .063.023 13.931 13.931 0 0 1-.003 2.139z" class="cls-1" data-name="Path 1077" transform="translate(-6.902 -.515)"/>
        <path id="Path_1078" d="M90.8 53.024V54c0 .315.005.63 0 .945-.005.23-.024.248-.257.251-.472.005-.946 0-1.418 0h-2.3c-.312 0-.314-.006-.316-.325V53.25c0-.294.006-.293.3-.306.078 0 .157-.006.235-.014.02 0 .039-.019.09-.046-.111-.364-.277-.711-.443-1.1-.347.234-.655.437-.958.648-.149.1-.111.262-.087.4s.152.106.249.113a.713.713 0 0 1 .307.045.532.532 0 0 1 .031.122c0 .608.006 1.215 0 1.823 0 .243-.017.26-.243.261h-3.476a.418.418 0 0 1-.094-.023 10.622 10.622 0 0 1-.031-2.158c.12-.082.28-.014.408-.073.078-.258.091-5.978.015-6.33-.117-.076-.266 0-.386-.071a.253.253 0 0 1-.047-.191v-1.586c0-.244.014-.263.241-.264.934-.005 1.867 0 2.8 0a.258.258 0 0 1 .2.079v6.1a6.5 6.5 0 0 0 1.5-1c-.174-.114-.382 0-.55-.088a.2.2 0 0 1-.051-.154c0-.586-.006-1.17 0-1.755 0-.234.022-.255.252-.256h3.747c.169 0 .245.06.243.237q-.008.86 0 1.721c0 .163-.052.277-.229.243a1.473 1.473 0 0 0-1.291.5c-.075.066-.154.129-.221.185a.426.426 0 0 0 .07.271c.308.7.626 1.395.923 2.1a.389.389 0 0 0 .455.291.5.5 0 0 1 .332.05z" class="cls-1" data-name="Path 1078" transform="translate(-12.284 -.004)"/>
        <path id="Path_1079" d="M17.67 52.611a2.1 2.1 0 0 1-.174.735 1.29 1.29 0 0 1-2.056.256 2.219 2.219 0 0 1-.375-1.408h2.6c.427 0 .855.005 1.283 0s.847.026 1.26-.02a5.145 5.145 0 0 0-.256-2.222A2.966 2.966 0 0 0 17.6 47.9a7.188 7.188 0 0 0-2.85-.031 3.611 3.611 0 0 0-2.938 2.863 4.7 4.7 0 0 0-.072 1.742 3.6 3.6 0 0 0 2.625 3.226 5.694 5.694 0 0 0 3.487-.018 3 3 0 0 0 1.581-1.154 6.065 6.065 0 0 0 .852-1.826.249.249 0 0 0-.012-.091zm-2.383-2.516a.983.983 0 0 1 1.515-.119.969.969 0 0 1 .208.38c.151.529.1.6-.45.6h-1.077a.59.59 0 0 1-.333-.047 1.126 1.126 0 0 1 .136-.814z" class="cls-1" data-name="Path 1079" transform="translate(-1.763 -.488)"/>
        <path id="Path_1080" d="M65.772 52.2h4.522c.254 0 .262-.013.264-.274a5.485 5.485 0 0 0-.455-2.3 2.748 2.748 0 0 0-1.9-1.63 6.915 6.915 0 0 0-2.676-.186 3.705 3.705 0 0 0-3.067 2.035c-.023.046-.04.108-.117.1a.7.7 0 0 1-.029-.329v-1.35c0-.109.032-.226-.049-.324v2.141c.083.1.008.195-.023.284a4.572 4.572 0 0 0-.194 2.129 3.689 3.689 0 0 0 2.866 3.285 6.066 6.066 0 0 0 2.709.058 3.158 3.158 0 0 0 2.34-1.7 8.067 8.067 0 0 0 .538-1.308.187.187 0 0 0-.016-.212h-2.419a.226.226 0 0 0-.05.174 1.232 1.232 0 0 1-1.051 1.188 1.194 1.194 0 0 1-1.226-.388 2.387 2.387 0 0 1-.363-1.322.608.608 0 0 1 .396-.071zm.679-2.506c.612.021.967.512.875 1.237h-1.869c-.036-.825.336-1.264.994-1.24z" class="cls-1" data-name="Path 1080" transform="translate(-9.253 -.489)"/>
        <path id="Path_1081" d="M80.325 49.5a2.561 2.561 0 0 0-1.678-1.449 6.659 6.659 0 0 0-3.2-.175 3.574 3.574 0 0 0-2.61 1.838 4.491 4.491 0 0 0-.523 2.474 3.787 3.787 0 0 0 3.159 3.655 6.2 6.2 0 0 0 2.446-.009 3.109 3.109 0 0 0 2.3-1.7 8.123 8.123 0 0 0 .516-1.281c.022-.071.066-.148 0-.221a13.549 13.549 0 0 0-2.41.031c-.038.139-.006.286-.05.429a1.372 1.372 0 0 1-2.209.568.285.285 0 0 1-.084-.1 3.228 3.228 0 0 1-.3-1.319 1.3 1.3 0 0 1 .442-.04h4.387c.323 0 .323-.005.329-.313a5.329 5.329 0 0 0-.515-2.388zm-2.707 1.422a.482.482 0 0 1-.122.031h-1.548c-.13 0-.223-.035-.214-.187.05-.854.575-1.266 1.378-.986a.984.984 0 0 1 .506 1.137z" class="cls-1" data-name="Path 1081" transform="translate(-10.787 -.49)"/>
    </g>
</svg>
