<svg xmlns="http://www.w3.org/2000/svg" width="87.555" height="9.466" viewBox="0 0 87.555 9.466">
    <defs>
        <style>
            .cls-1{fill:#f9fafd}
        </style>
    </defs>
    <g id="Group_1971" data-name="Group 1971" transform="translate(-853 -495.795)">
        <g id="Group_1938" data-name="Group 1938" transform="translate(853 495.795)">
            <path id="Path_1160" d="M49.976 174.309c-.467 1.241-.735 2.437-1.084 3.606-.3 1-.576 2-.856 3a.305.305 0 0 1-.333.259c-1.014.044-1.007.049-1.266-.9q-.726-2.676-1.468-5.348a.81.81 0 0 0-.226-.489.9.9 0 0 0-.071.508c0 1.924-.008 3.849.007 5.774 0 .343-.075.494-.446.459a6.068 6.068 0 0 0-.992 0c-.3.021-.4-.084-.4-.392.013-1.422.007-2.844.007-4.266 0-1.225.008-2.452-.007-3.679 0-.308.064-.43.4-.418.759.026 1.52.021 2.28 0a.4.4 0 0 1 .472.367 426.05 426.05 0 0 0 1.184 4.74c.039.157.028.346.2.472.13-.067.121-.2.151-.308.443-1.617.892-3.232 1.317-4.854.082-.316.213-.431.546-.418.71.028 1.422.018 2.132 0 .262 0 .335.087.333.339q-.01 4.027 0 8.054c0 .277-.087.371-.358.356a7.448 7.448 0 0 0-.994 0c-.348.028-.462-.082-.459-.446.018-1.814.007-3.628.008-5.443a5.053 5.053 0 0 0-.077-.973z" class="cls-1" data-name="Path 1160" transform="translate(-16.321 -171.821)"/>
            <path id="Path_1161" d="M76.321 174.71c.21-.029.259-.194.32-.31a1.912 1.912 0 0 1 3.09.074c.126.238.226.267.366.016a1.929 1.929 0 0 1 2.266-.736 1.845 1.845 0 0 1 1.22 1.788c.021 1.471.011 2.94.025 4.412 0 .248-.092.317-.325.31a16.807 16.807 0 0 0-1.25 0c-.259.011-.335-.084-.333-.336.011-1.189.007-2.378 0-3.567a2.868 2.868 0 0 0-.034-.474.741.741 0 0 0-.846-.72.759.759 0 0 0-.764.817c-.013.846 0 1.692 0 2.537 0 .454-.013.907 0 1.361.01.276-.064.4-.369.382a10.679 10.679 0 0 0-1.212 0c-.279.015-.359-.085-.358-.354.011-1.153.007-2.3 0-3.457a4.614 4.614 0 0 0-.034-.622.7.7 0 0 0-.628-.663.813.813 0 0 0-.853.505 2.375 2.375 0 0 0-.141.9c0 1.1-.008 2.206 0 3.31 0 .282-.067.4-.369.379a9.384 9.384 0 0 0-1.176 0c-.32.021-.385-.11-.382-.4.011-1.606.007-3.211 0-4.817 0-.331 0-.663-.033-.991-.021-.226.036-.315.267-.308.38.01.761.011 1.14 0 .235-.01.336.089.348.315s.044.427.065.649z" class="cls-1" data-name="Path 1161" transform="translate(3.948 -171.036)"/>
            <path id="Path_1162" d="M41.344 177.868c0 .712-.008 1.422 0 2.134 0 .254-.08.349-.339.339-.4-.016-.809-.016-1.212 0-.272.011-.361-.082-.358-.359.013-1.176.007-2.353 0-3.529a3.357 3.357 0 0 0-.031-.513.7.7 0 0 0-.689-.679.768.768 0 0 0-.9.579 2.121 2.121 0 0 0-.089.653c0 1.151-.008 2.3.008 3.455 0 .308-.1.41-.4.394-.4-.021-.809-.015-1.212 0-.241.008-.356-.054-.354-.325q.012-2.979 0-5.956c0-.179.057-.241.228-.239.405 0 .809.01 1.214 0 .231-.007.294.107.3.313.007.226-.075.6.075.643.189.054.277-.3.415-.467a1.966 1.966 0 0 1 3.018.269 2.771 2.771 0 0 1 .317 1.269v2.022z" class="cls-1" data-name="Path 1162" transform="translate(-20.84 -170.986)"/>
            <path id="Path_1163" d="M35.466 179.33c-.153.018-.182.107-.228.175a1.985 1.985 0 0 1-2.676.636 1.906 1.906 0 0 1-.858-1.627c-.1-1.492-.026-2.99-.043-4.485 0-.171.075-.243.244-.241h1.471c.271 0 .236.192.238.359v3.716a2.17 2.17 0 0 0 .039.436.623.623 0 0 0 .585.564.785.785 0 0 0 .894-.412 2.326 2.326 0 0 0 .184-1.038c.008-1.092.011-2.183 0-3.273 0-.279.09-.367.359-.356.392.016.786.02 1.176 0 .3-.016.379.1.377.382-.011 1.46-.008 2.918 0 4.377 0 .477.01.956.034 1.433.013.231-.044.341-.3.331a15.518 15.518 0 0 0-1.1 0c-.256.008-.353-.1-.349-.348-.006-.205-.033-.411-.047-.629z" class="cls-1" data-name="Path 1163" transform="translate(-23.484 -170.952)"/>
            <path id="Path_1164" d="M57.067 174.766a.3.3 0 0 0 .259-.193 1.891 1.891 0 0 1 2.158-.786 1.785 1.785 0 0 1 1.325 1.668 16.508 16.508 0 0 1 .044 1.911c.007.858-.013 1.715.008 2.573.007.33-.107.428-.425.407a9.41 9.41 0 0 0-1.138 0c-.294.016-.38-.09-.377-.377.013-1.225.007-2.452 0-3.677a2.3 2.3 0 0 0-.036-.438.657.657 0 0 0-.574-.584.764.764 0 0 0-.907.39 2.572 2.572 0 0 0-.2 1.22 167.297 167.297 0 0 0 0 3.088c0 .289-.087.394-.377.377a11.743 11.743 0 0 0-1.178 0c-.271.011-.358-.082-.356-.358.011-1.594.007-3.187 0-4.781 0-.343 0-.686-.034-1.027-.023-.264.044-.382.335-.362a8.607 8.607 0 0 0 1.028 0c.267-.016.384.084.389.348.011.197.038.391.056.601z" class="cls-1" data-name="Path 1164" transform="translate(-8.371 -170.988)"/>
            <path id="Path_1165" d="M52.975 174.759c.126-.01.172-.107.221-.185a1.907 1.907 0 0 1 2.193-.772 1.789 1.789 0 0 1 1.291 1.656 17.9 17.9 0 0 1 .044 2.055c.008.808-.008 1.619.007 2.427.007.292-.069.423-.387.4a9.69 9.69 0 0 0-1.176 0c-.3.016-.376-.1-.374-.382.01-1.263.008-2.526 0-3.787 0-.667-.289-.94-.91-.913a.735.735 0 0 0-.694.6 3.2 3.2 0 0 0-.118.982c0 1.028-.011 2.058.008 3.088.007.331-.1.43-.421.408a9.788 9.788 0 0 0-1.14 0c-.277.015-.353-.084-.351-.356.011-1.617.007-3.236 0-4.853 0-.33-.008-.661-.034-.991-.018-.231.041-.338.3-.325a10.745 10.745 0 0 0 1.1 0c.266-.013.336.113.351.346a1.112 1.112 0 0 0 .09.602z" class="cls-1" data-name="Path 1165" transform="translate(-11.012 -170.987)"/>
            <path id="Path_1166" d="M40.524 177.682c0-.49-.011-.981 0-1.471.008-.271-.082-.371-.359-.356-.717.036-.722.028-.715-.669.007-.736-.116-.681.663-.656.38.013.477-.1.466-.471-.025-.858-.007-.859.805-1.135.254-.087.517-.156.768-.253.225-.085.31-.036.3.213-.011.441.007.884-.007 1.323-.008.239.075.344.317.312a.372.372 0 0 1 .074 0c.289.028.7-.136.84.079.2.29.057.712.061 1.077 0 .151-.1.175-.225.177-.246 0-.492.016-.735 0-.264-.018-.335.092-.331.341.011.871 0 1.74 0 2.611 0 .8.2 1 .982.93.284-.028.384.033.344.312a1.4 1.4 0 0 0 0 .22c0 .772 0 .781-.763.836a3.075 3.075 0 0 1-1.448-.123 1.806 1.806 0 0 1-1.041-1.827c-.016-.49 0-.981 0-1.471z" class="cls-1" data-name="Path 1166" transform="translate(-18.491 -171.686)"/>
            <path id="Path_1167" d="M71.493 179.357c.023.777.02.759-.7.9a4.115 4.115 0 0 1-2.1-.054 2.914 2.914 0 0 1-1.978-2.742 3.436 3.436 0 0 1 .836-2.837 3.1 3.1 0 0 1 3.2-.84c.859.212.707.077.646.907-.015.2.066.48-.085.594s-.384-.067-.582-.108c-1.294-.261-2.094.5-2.06 1.943a1.673 1.673 0 0 0 2.307 1.735c.464-.141.464-.141.5.354.013.069.016.143.016.148z" class="cls-1" data-name="Path 1167" transform="translate(-1.061 -171.035)"/>
            <path id="Path_1168" d="M51.22 177.08c0 .945-.018 1.888.01 2.831.011.385-.12.49-.482.466a12.082 12.082 0 0 0-1.248 0c-.226.007-.335-.059-.335-.308q.012-3 0-5.991c0-.243.092-.32.326-.315.464.013.932.015 1.4 0 .266-.008.335.1.331.348-.008.992 0 1.984 0 2.977z" class="cls-1" data-name="Path 1168" transform="translate(-12.274 -170.968)"/>
            <path id="Path_1169" d="M51.042 173.022a.959.959 0 0 1-.95.928.978.978 0 0 1-.94-.941.945.945 0 1 1 1.889.013z" class="cls-1" data-name="Path 1169" transform="translate(-12.282 -172.056)"/>
            <path id="Path_1170" d="M66.12 178.449a.942.942 0 1 1 .034-1.883 1 1 0 0 1 .95.941.984.984 0 0 1-.984.942z" class="cls-1" data-name="Path 1170" transform="translate(-2.016 -169.169)"/>
            <path id="Path_1171" d="M61.278 173a.953.953 0 0 1-.923.951 1.031 1.031 0 0 1-.971-.925 1 1 0 0 1 .959-.969.965.965 0 0 1 .935.943z" class="cls-1" data-name="Path 1171" transform="translate(-5.734 -172.056)"/>
            <path id="Path_1176" d="M34.37 180.755c-.776-2.424-1.547-4.848-2.33-7.27-.112-.344-.107-.822-.4-.989-.264-.153-.689-.033-1.041-.033v-.03a5.29 5.29 0 0 1-.625 0c-.346-.041-.515.08-.623.43-.392 1.248-.823 2.485-1.235 3.724-.467 1.406-.925 2.814-1.4 4.216-.1.305-.03.394.28.379.4-.016.809-.013 1.214 0a.322.322 0 0 0 .369-.267c.138-.482.3-.958.433-1.442.054-.192.134-.287.351-.284q1.156.017 2.316 0c.216 0 .3.085.344.282.118.476.277.94.38 1.417a.318.318 0 0 0 .379.292c.428-.008.858 0 1.286 0s.432-.008.302-.425zm-3.1-3.019a52.705 52.705 0 0 0-1.54 0c-.153 0-.182-.049-.139-.2q.475-1.651.94-3.3l.09-.011.822 3.291c.034.146.002.223-.176.22z" class="cls-1" data-name="Path 1176" transform="translate(-26.67 -171.824)"/>
            <path id="Path_1177" d="M73.513 173.668a2.842 2.842 0 0 0-3.144 2.024 4.176 4.176 0 0 0-.149 1.994 2.834 2.834 0 0 0 1.829 2.462 3.06 3.06 0 0 0 3.209-.505 3.361 3.361 0 0 0 1.032-2.508c-.003-2.068-1.014-3.275-2.777-3.467zm.508 4.751a.84.84 0 0 1-.79.605.8.8 0 0 1-.794-.594 4.274 4.274 0 0 1-.01-2.837.824.824 0 0 1 .792-.607.862.862 0 0 1 .815.628 3.681 3.681 0 0 1 .21 1.4 3.568 3.568 0 0 1-.222 1.405z" class="cls-1" data-name="Path 1177" transform="translate(1.165 -171.037)"/>
            <path id="Path_1178" d="M66.871 175.895a2.44 2.44 0 0 0-1.774-2.045 2.705 2.705 0 0 0-2.891.751 3.78 3.78 0 0 0-.708 3.752 2.672 2.672 0 0 0 2.183 1.988 4.505 4.505 0 0 0 1.9 0c1.269-.269 1.064-.12 1.036-1.317-.007-.321-.115-.3-.341-.2a3.368 3.368 0 0 1-1.861.3 1.419 1.419 0 0 1-1.274-1.228c-.026-.226.028-.338.289-.33.538.015 1.077 0 1.617 0s1.055-.02 1.579.007c.318.015.4-.1.387-.4a7.229 7.229 0 0 0-.142-1.278zm-1.686.464c-.134.367-.51.085-.768.162a.952.952 0 0 1-.256 0c-.244 0-.489-.008-.733 0-.2.008-.3-.053-.269-.272a2.284 2.284 0 0 1 .248-.912.911.911 0 0 1 1.558 0 1.666 1.666 0 0 1 .22 1.017z" class="cls-1" data-name="Path 1178" transform="translate(-4.511 -170.989)"/>
            <path id="Path_1179" d="M61.375 177.055v2.793c0 .479 0 .48-.5.482-.356 0-.71-.008-1.066 0-.244.007-.351-.08-.351-.339q.01-2.94 0-5.879c0-.254.1-.356.348-.351.43.011.858.023 1.286.02.274 0 .28.172.28.369q0 1.45.003 2.905z" class="cls-1" data-name="Path 1179" transform="translate(-5.685 -170.963)"/>
        </g>
    </g>
</svg>
