<svg xmlns="http://www.w3.org/2000/svg" width="90.901" height="10.261" viewBox="0 0 90.901 10.261">
    <defs>
        <style>
            .cls-1{fill:#f9fafd}
        </style>
    </defs>
    <g id="Group_1970" data-name="Group 1970" transform="translate(-701 -495)">
        <g id="Group_1836" data-name="Group 1836" transform="translate(701 495.45)">
            <path id="Path_1062" d="M8.927 5.159v4.528a.628.628 0 0 1-.419.063H1.976A1.842 1.842 0 0 1 0 7.767V1.8a1.843 1.843 0 0 1 2-2h6.932v4.289H4.7a4.019 4.019 0 0 0-.034 1.07z" class="cls-1" data-name="Path 1062" transform="translate(0 -.096)"/>
            <path id="Path_1063" d="M37.575 2.569h-1.887c-.243 0-.337-.2-.476-.331a3.077 3.077 0 0 0-2.937-.881 3.417 3.417 0 0 0 .825 6.724 2.923 2.923 0 0 0 2.066-.959.807.807 0 0 1 .664-.265c.552.018 1.1.005 1.66.005-.209 1.516-2.7 3.05-4.733 2.944a5.22 5.22 0 0 1-4.884-4.957 5.119 5.119 0 0 1 4.564-5.261 4.887 4.887 0 0 1 5.138 2.981z" class="cls-1" data-name="Path 1063" transform="translate(-10.872)"/>
            <path id="Path_1064" d="M105 5.99h-5.372a2.6 2.6 0 0 1-.051-.873h6.623a1.828 1.828 0 0 1-.1.883 5.053 5.053 0 0 1-4.224 3.724 5.289 5.289 0 0 1-5.982-3.907 5.105 5.105 0 0 1 3.945-6.084 5.266 5.266 0 0 1 5.444 1.954 3.894 3.894 0 0 1 .3.478 1.045 1.045 0 0 1 .066.2 3.607 3.607 0 0 1-1.021.035c-.131 0-.179-.124-.246-.213a4.2 4.2 0 0 0-4.97-1.356A4.239 4.239 0 0 0 96.793 5.2a4.269 4.269 0 0 0 3.771 3.653 4.162 4.162 0 0 0 4.164-2.1A1.451 1.451 0 0 0 105 5.99z" class="cls-1" data-name="Path 1064" transform="translate(-37.354 -.021)"/>
            <path id="Path_1065" d="M64.052-.1h1.163c.19 0 .249.146.332.268l4.462 6.638a9.219 9.219 0 0 0 .811 1.079V-.041a2.327 2.327 0 0 1 .994-.026c.071.339.077 9.374.006 9.769a3.439 3.439 0 0 1-.844.03c-.187 0-.238-.167-.319-.287L66.415 3.16c-.441-.653-.883-1.306-1.406-1.941v8.467a2.714 2.714 0 0 1-.957.028z" class="cls-1" data-name="Path 1065" transform="translate(-24.985 -.133)"/>
            <path id="Path_1066" d="M122.817 9.716a3.748 3.748 0 0 1-.966-.01V5.148h-5.069v4.54a2.74 2.74 0 0 1-.965.026V-.04a2.014 2.014 0 0 1 .946-.009v4.23h5.068V-.051a2.937 2.937 0 0 1 .986-.021z" class="cls-1" data-name="Path 1066" transform="translate(-45.176 -.135)"/>
            <path id="Path_1067" d="M144.885 2.272h-.869c-.124-.157-.1-.345-.148-.51a1.758 1.758 0 0 0-2.04-1.213 1.689 1.689 0 0 0-1.376 1.77 1.358 1.358 0 0 0 .773 1.169 6.6 6.6 0 0 0 1.449.528 4.815 4.815 0 0 1 1.086.425 2.781 2.781 0 0 1 1.369 3.05 2.927 2.927 0 0 1-2.439 2.27 3.214 3.214 0 0 1-2.546-.689 2.73 2.73 0 0 1-.961-2.176 2.476 2.476 0 0 1 .936-.015.914.914 0 0 1 .113.412 1.99 1.99 0 0 0 3.918-.692 1.791 1.791 0 0 0-.961-1.283 6.72 6.72 0 0 0-1.408-.531 8.429 8.429 0 0 1-.819-.283 2.464 2.464 0 0 1-1.071-3.746A2.864 2.864 0 0 1 142.974-.3a2.623 2.623 0 0 1 1.959 2.326.34.34 0 0 1-.048.246z" class="cls-1" data-name="Path 1067" transform="translate(-54.291 -.017)"/>
            <path id="Path_1068" d="M79.229 6.9a1.636 1.636 0 0 1 .583-.045.542.542 0 0 1 .341.057c.059.232.1.48.184.713a1.978 1.978 0 0 0 2.709 1.083 1.905 1.905 0 0 0 .943-2.6 2.169 2.169 0 0 0-1.089-.942 11.659 11.659 0 0 0-1.287-.429c-.179-.058-.36-.115-.534-.185a2.331 2.331 0 0 1-1.61-2.632A2.63 2.63 0 0 1 81.63-.346a2.706 2.706 0 0 1 3.305 2.292.406.406 0 0 1-.04.32 5.421 5.421 0 0 1-.857.016c-.128-.124-.1-.272-.134-.4A1.766 1.766 0 0 0 81.73.572a1.7 1.7 0 0 0-1.236 2 1.407 1.407 0 0 0 .764.93 6.964 6.964 0 0 0 1.416.512 5.082 5.082 0 0 1 1.054.4 2.765 2.765 0 0 1 1.421 2.99 2.906 2.906 0 0 1-2.443 2.351 3.283 3.283 0 0 1-2.338-.521A2.6 2.6 0 0 1 79.229 6.9z" class="cls-1" data-name="Path 1068" transform="translate(-30.899 -.02)"/>
            <path id="Path_1069" d="M16.077 13.207V8.648h4.308c.026.029.055.048.056.066a24.205 24.205 0 0 1 0 2.937 1.732 1.732 0 0 1-1.5 1.522 2.891 2.891 0 0 1-.487.031c-.78.004-1.554.003-2.377.003z" class="cls-1" data-name="Path 1069" transform="translate(-6.271 -3.549)"/>
            <path id="Path_1070" d="M20.408 4.081h-4.334V-.132c.1-.1.2-.071.3-.071.742 0 1.484-.009 2.226 0a1.809 1.809 0 0 1 1.871 1.887v2a.675.675 0 0 1-.063.397z" class="cls-1" data-name="Path 1070" transform="translate(-6.27 -.095)"/>
            <path id="Path_1071" d="M132.6 9.717a3.844 3.844 0 0 1-1.013.012V.836h-2.2a1.5 1.5 0 0 1-.03-.9h5.416a1.5 1.5 0 0 1 0 .882H132.6z" class="cls-1" data-name="Path 1071" transform="translate(-50.437 -.15)"/>
            <path id="Path_1072" d="M58.921-.073a2.923 2.923 0 0 1 .951.014V9.7a2.924 2.924 0 0 1-.951.013z" class="cls-1" data-name="Path 1072" transform="translate(-22.983 -.134)"/>
            <path id="Path_1073" d="M91.449-.073a3.019 3.019 0 0 1 .952.011v9.734a.46.46 0 0 1-.32.066 2.132 2.132 0 0 1-.632-.042z" class="cls-1" data-name="Path 1073" transform="translate(-35.671 -.135)"/>
            <path id="Path_1074" d="M50.832 4.427a.809.809 0 0 1-.116-.085 2.136 2.136 0 0 0 .96-1.374A2.538 2.538 0 0 0 49.553 0a24.89 24.89 0 0 0-3.625-.112v9.845c1.178-.017 2.32.043 3.462-.045a3.682 3.682 0 0 0 1.03-.217 2.7 2.7 0 0 0 1.88-2.527 2.363 2.363 0 0 0-1.468-2.517zm-3.064-2.8a3.909 3.909 0 0 1 1.355.06.921.921 0 0 1 .748.987.9.9 0 0 1-.753.939 3.97 3.97 0 0 1-1.35.078zM49.511 7.9a6.1 6.1 0 0 1-1.746.1V5.443a5.235 5.235 0 0 1 1.8.114 1.207 1.207 0 0 1 .9 1.239 1.143 1.143 0 0 1-.954 1.104z" class="cls-1" data-name="Path 1074" transform="translate(-17.915 -.126)"/>
        </g>
    </g>
</svg>
