<svg xmlns="http://www.w3.org/2000/svg" width="44.484" height="60.581" viewBox="0 0 44.484 60.581">
    <defs>
        <style>
            .cls-1{fill:#00c9ea}
        </style>
    </defs>
    <g id="Group_1866" data-name="Group 1866" transform="translate(-683 -1195)">
        <g id="Group_1804" data-name="Group 1804" transform="translate(683 1195)">
            <g id="Group_1803" data-name="Group 1803">
                <g id="Group_1799" data-name="Group 1799">
                    <path id="Path_930" d="M1134.586 1760.41h-23.866a2.754 2.754 0 0 0 0 5.508h23.867a2.754 2.754 0 1 0 0-5.508zm0 3.672h-23.866a.918.918 0 0 1 0-1.836h23.867a.918.918 0 1 1 0 1.836z" class="cls-1" data-name="Path 930" transform="translate(-1100.411 -1705.337)"/>
                    <path id="Path_931" d="M1163.214 1699.488c-3.046 0-4.59-2.162-4.59-6.426a.918.918 0 0 0-.918-.918h-9.179a.918.918 0 0 0-.918.918c0 4.264-1.544 6.426-4.59 6.426a.918.918 0 1 0 0 1.836h20.195a.918.918 0 1 0 0-1.836zm-15.723 0a8.8 8.8 0 0 0 1.93-5.508h7.394a8.784 8.784 0 0 0 1.93 5.508z" class="cls-1" data-name="Path 931" transform="translate(-1130.874 -1644.414)"/>
                    <g id="Group_1798" data-name="Group 1798">
                        <path id="Path_932" d="M1110.434 1323.9v-40.411a.961.961 0 0 0-1-.918h-34.753a.961.961 0 0 0-1 .918v40.411a.961.961 0 0 0 1 .918h34.753a.961.961 0 0 0 1-.918zm-34.753-.918v-38.575h32.755v38.575z" class="cls-1" data-name="Path 932" transform="translate(-1069.817 -1278.904)"/>
                        <g id="Group_1797" data-name="Group 1797" transform="translate(10.248 9.204)">
                            <path id="Path_933" d="M1316 1585.582v1.721h3.442a.86.86 0 0 0 .86-.86V1583h-1.721v2.582z" class="cls-1" data-name="Path 933" transform="translate(-1296.314 -1556.215)"/>
                            <path id="Path_934" d="M1133.86 1587.3h3.442v-1.721h-2.582V1583H1133v3.442a.861.861 0 0 0 .861.86" class="cls-1" data-name="Path 934" transform="translate(-1133 -1556.215)"/>
                            <path id="Path_935" d="M1318.581 1335.721v2.582h1.721v-3.442a.861.861 0 0 0-.86-.861H1316v1.721z" class="cls-1" data-name="Path 935" transform="translate(-1296.314 -1334)"/>
                            <path id="Path_936" d="M1133 1334.86v3.442h1.721v-2.582h2.582V1334h-3.442a.861.861 0 0 0-.861.861" class="cls-1" data-name="Path 936" transform="translate(-1133 -1334)"/>
                        </g>
                        <path id="Path_937" d="M1078.545 1248.442h-37.139a3.677 3.677 0 0 0-3.673 3.673v42.245a3.677 3.677 0 0 0 3.673 3.673h37.139a3.677 3.677 0 0 0 3.673-3.672v-42.245a3.677 3.677 0 0 0-3.673-3.674zm1.837 45.918a1.839 1.839 0 0 1-1.837 1.837h-37.139a1.839 1.839 0 0 1-1.837-1.837v-42.245a1.839 1.839 0 0 1 1.837-1.837h37.139a1.839 1.839 0 0 1 1.837 1.837z" class="cls-1" data-name="Path 937" transform="translate(-1037.733 -1248.442)"/>
                    </g>
                </g>
                <g id="Group_1802" data-name="Group 1802" transform="translate(9.387 14.61)">
                    <path id="Path_938" d="M1232.673 1423.632v6.268a1.132 1.132 0 0 1-.635 1.105 3.249 3.249 0 0 1-1.92-.057 1.128 1.128 0 0 1-.529-1.028v-2.414-10.124c0-.6.258-1.064.78-1.153a4.664 4.664 0 0 1 1.522 0 1.016 1.016 0 0 1 .779 1.112v3.267z" class="cls-1" data-name="Path 938" transform="translate(-1218.339 -1412.735)"/>
                    <path id="Path_939" d="M1125 1503.569a2.086 2.086 0 0 1 .881-1.65c.24-.184.572-.089.825.192a.448.448 0 0 1 .041.654c-.1.112-.216.2-.317.308a.473.473 0 0 0-.014.743 3.215 3.215 0 0 0 1.11.757 11.207 11.207 0 0 0 2.749.871c1.16.214 2.33.378 3.5.543.48.068.969.077 1.453.122a.6.6 0 0 1 .537.428.587.587 0 0 1-.245.674.763.763 0 0 1-.437.108c-1.2-.118-2.394-.228-3.584-.393-.726-.1-1.441-.287-2.157-.452a10.3 10.3 0 0 1-2.9-1.089 2.9 2.9 0 0 1-1.225-1.166 4.106 4.106 0 0 1-.217-.65z" class="cls-1" data-name="Path 939" transform="translate(-1125 -1489.178)"/>
                    <path id="Path_940" d="M1273.509 1503.569a2.086 2.086 0 0 0-.881-1.65c-.24-.184-.572-.089-.825.192a.449.449 0 0 0-.041.654c.1.112.216.2.317.308a.473.473 0 0 1 .014.743 3.214 3.214 0 0 1-1.11.757 11.206 11.206 0 0 1-2.748.871c-1.16.214-2.33.378-3.5.543-.48.068-.969.077-1.453.122a.6.6 0 0 0-.537.428.587.587 0 0 0 .245.674.764.764 0 0 0 .437.108c1.2-.118 2.394-.228 3.583-.393.726-.1 1.441-.287 2.157-.452a10.3 10.3 0 0 0 2.9-1.089 2.9 2.9 0 0 0 1.225-1.166 4.116 4.116 0 0 0 .217-.65z" class="cls-1" data-name="Path 940" transform="translate(-1247.907 -1489.178)"/>
                    <g id="Group_1800" data-name="Group 1800" transform="translate(14.786 5.978)">
                        <path id="Path_941" d="M1272.427 1475.474a1.593 1.593 0 0 1-.681 1.33 5.557 5.557 0 0 1-2.137 1.011 29.1 29.1 0 0 1-2.8.606c-1.106.174-2.226.264-3.34.389a.748.748 0 0 1-.768-.238.6.6 0 0 1 .438-.972c1.069-.1 2.14-.192 3.2-.331a15.522 15.522 0 0 0 3.669-.881 3.123 3.123 0 0 0 1.09-.637c.131-.128.118-.229 0-.36a1.582 1.582 0 0 1-.315-.45.526.526 0 0 1 .212-.638.548.548 0 0 1 .665-.03 1.538 1.538 0 0 1 .767 1.201z" class="cls-1" data-name="Path 941" transform="translate(-1262.557 -1470.481)"/>
                        <path id="Path_942" d="M1262.457 1443.853a.624.624 0 0 1 .6-.615c.41-.04.824-.045 1.232-.1 1.036-.143 2.071-.292 3.1-.466a8.973 8.973 0 0 0 2.592-.82 3.637 3.637 0 0 0 .613-.416c.166-.133.157-.255.01-.407-.042-.043-.086-.084-.129-.127a.6.6 0 0 1-.039-.839.559.559 0 0 1 .812-.092 1.488 1.488 0 0 1 .648 1.635 1.777 1.777 0 0 1-.711.934 6.135 6.135 0 0 1-2 .939 13.418 13.418 0 0 1-1.347.361q-1.373.255-2.757.444c-.622.085-1.251.116-1.876.173a.612.612 0 0 1-.653-.3 1.611 1.611 0 0 1-.095-.304z" class="cls-1" data-name="Path 942" transform="translate(-1262.457 -1439.836)"/>
                    </g>
                    <g id="Group_1801" data-name="Group 1801" transform="translate(1.189 5.978)">
                        <path id="Path_943" d="M1136.054 1475.474a1.593 1.593 0 0 0 .681 1.33 5.558 5.558 0 0 0 2.137 1.011 29.1 29.1 0 0 0 2.8.606c1.106.174 2.226.264 3.34.389a.747.747 0 0 0 .768-.238.6.6 0 0 0-.438-.972c-1.069-.1-2.14-.192-3.2-.331a15.524 15.524 0 0 1-3.669-.881 3.123 3.123 0 0 1-1.09-.637c-.131-.128-.117-.229 0-.36a1.587 1.587 0 0 0 .315-.45.525.525 0 0 0-.212-.638.548.548 0 0 0-.665-.03 1.538 1.538 0 0 0-.767 1.201z" class="cls-1" data-name="Path 943" transform="translate(-1136.054 -1470.481)"/>
                        <path id="Path_944" d="M1149.036 1443.853a.624.624 0 0 0-.6-.615c-.41-.04-.824-.045-1.232-.1a103.353 103.353 0 0 1-3.1-.466 8.971 8.971 0 0 1-2.592-.82 3.639 3.639 0 0 1-.614-.416c-.166-.133-.157-.255-.01-.407.042-.043.086-.084.129-.127a.6.6 0 0 0 .039-.839.559.559 0 0 0-.812-.092 1.488 1.488 0 0 0-.648 1.635 1.778 1.778 0 0 0 .711.934 6.134 6.134 0 0 0 2 .939 13.418 13.418 0 0 0 1.347.361q1.373.255 2.757.444c.622.085 1.251.116 1.876.173a.612.612 0 0 0 .652-.3 1.611 1.611 0 0 0 .097-.304z" class="cls-1" data-name="Path 944" transform="translate(-1139.166 -1439.836)"/>
                    </g>
                    <path id="Path_945" d="M1269.473 1417.661a2.822 2.822 0 0 1-.232-.585.544.544 0 0 1 .357-.579.557.557 0 0 1 .639.1 1.23 1.23 0 0 1 .5 1.247 1.414 1.414 0 0 1-.616.845 5.376 5.376 0 0 1-2.095.864c-.9.2-1.8.349-2.708.483-.661.1-1.33.145-2 .2a.611.611 0 0 1-.132-1.215c.733-.072 1.47-.113 2.2-.209a18.4 18.4 0 0 0 1.992-.363c.585-.144 1.153-.362 1.723-.564a1.929 1.929 0 0 0 .372-.224z" class="cls-1" data-name="Path 945" transform="translate(-1247.839 -1412.976)"/>
                    <path id="Path_946" d="M1150.957 1417.557a2.683 2.683 0 0 0 1.007.542 13.038 13.038 0 0 0 2.719.613c.851.108 1.705.183 2.559.267a.613.613 0 0 1 .6.668.6.6 0 0 1-.666.556 29.316 29.316 0 0 1-3.718-.456 11.347 11.347 0 0 1-2.383-.689 2.3 2.3 0 0 1-1.221-.978 1.22 1.22 0 0 1 .6-1.637.571.571 0 0 1 .669.2.6.6 0 0 1 0 .765 1.474 1.474 0 0 1-.166.149z" class="cls-1" data-name="Path 946" transform="translate(-1147.068 -1412.942)"/>
                    <path id="Path_947" d="M1224.889 1384.278h1.58c.48 0 .648.2.682.676a.819.819 0 0 1-.485.83 5.593 5.593 0 0 0-.37.242.527.527 0 0 0-.234.423.6.6 0 0 1-.655.615c-.371 0-.743.006-1.114 0a.585.585 0 0 1-.631-.595.636.636 0 0 0-.316-.507 1.606 1.606 0 0 0-.256-.159.878.878 0 0 1-.513-1.03.581.581 0 0 1 .591-.5c.574-.01 1.147 0 1.721 0z" class="cls-1" data-name="Path 947" transform="translate(-1212.068 -1384.263)"/>
                    <path id="Path_948" d="M1164.989 1390.938a1.315 1.315 0 0 1 .37-.967.559.559 0 0 1 .794-.1.6.6 0 0 1 .182.821c-.183.309-.175.357.1.579a3.632 3.632 0 0 0 1.3.633c.706.2 1.423.365 2.141.521.342.074.7.093 1.044.137a.585.585 0 0 1 .538.694.607.607 0 0 1-.681.519c-.469-.057-.938-.12-1.4-.2a11.953 11.953 0 0 1-2.288-.595 4.107 4.107 0 0 1-1.728-1.076 1.287 1.287 0 0 1-.372-.966z" class="cls-1" data-name="Path 948" transform="translate(-1160.684 -1389.157)"/>
                    <path id="Path_949" d="M1269.04 1390.888a1.7 1.7 0 0 1-.819 1.421 5.563 5.563 0 0 1-1.667.8 17.142 17.142 0 0 1-3.271.654.647.647 0 0 1-.7-.4.629.629 0 0 1 .277-.736.542.542 0 0 1 .208-.068 16.8 16.8 0 0 0 2.841-.536 4.825 4.825 0 0 0 1.714-.788c.193-.157.261-.3.09-.526a.582.582 0 0 1 .145-.839.56.56 0 0 1 .809.1 1.292 1.292 0 0 1 .373.918z" class="cls-1" data-name="Path 949" transform="translate(-1247.755 -1389.153)"/>
                    <path id="Path_950" d="M1229.2 1561.632h-1.115a.611.611 0 0 1-.64-.548 4.165 4.165 0 0 1 0-.826.585.585 0 0 1 .517-.514 1.453 1.453 0 0 1 .221-.021c.676 0 1.351-.006 2.027 0a.683.683 0 0 1 .77.775 4.345 4.345 0 0 1-.034.625.615.615 0 0 1-.594.507c-.377.006-.762.002-1.152.002z" class="cls-1" data-name="Path 950" transform="translate(-1216.412 -1540.846)"/>
                </g>
            </g>
        </g>
    </g>
</svg>
