<svg xmlns="http://www.w3.org/2000/svg" id="Group_1876" width="44.307" height="57.503" data-name="Group 1876" viewBox="0 0 44.307 57.503">
    <defs>
        <style>
            .cls-1{fill:#00c9ea}
        </style>
    </defs>
    <path id="Path_921" d="M33.286 50.758c.769 0 1.546-.009 2.315 0a1.06 1.06 0 0 1 1.199 1.22c.009 1.438.009 2.885 0 4.322-.009.832-.362 1.194-1.212 1.194q-12.411.014-24.832 0a1.037 1.037 0 0 1-1.167-1.176c-.018-1.365-.009-2.731-.009-4.105 0-1.121.307-1.429 1.411-1.474.118 0 .235-.018.488-.036-.235-.2-.38-.344-.543-.461a18.756 18.756 0 0 1-4.313-4.35 1.013 1.013 0 0 0-.963-.492c-1.438.027-2.885.018-4.322.009C.361 45.422.009 45.07 0 44.12c0-1.42-.009-2.83 0-4.25.009-.859.344-1.2 1.2-1.212q8.423-.014 16.847 0c.95 0 1.311.407 1.3 1.356-.009 1.176-.009 2.342-.009 3.518 0 1.673-.109 1.79-1.709 1.944l-.054.2a31.9 31.9 0 0 0 3.147.769A11.83 11.83 0 0 0 33 40.024a.948.948 0 0 0-.235-1.347 6.574 6.574 0 0 1-.316-9.45c.118-.127.226-.253.38-.416a11.928 11.928 0 0 0-6.99-5.643c-.3-.09-.606-.172-.922-.235a1.7 1.7 0 0 0-2.071 1.013l-3.355 6.746c-.534 1.067-.886 1.185-1.962.651-.723-.362-1.438-.714-2.243-1.121-.3.588-.6 1.167-.886 1.745-.371.742-.723 1.492-1.112 2.225a.991.991 0 0 1-1.519.488 217.431 217.431 0 0 1-4.128-2.062c-.76-.389-.9-.832-.506-1.619a502.408 502.408 0 0 0 1.953-3.87c-.769-.389-1.5-.76-2.234-1.121-1.031-.515-1.167-.9-.669-1.908 1.085-2.206 2.2-4.413 3.264-6.628a2.215 2.215 0 0 0 .235-1.04 8.981 8.981 0 0 1 3.97-8.03 2.732 2.732 0 0 0 .787-.913c1.139-2.206 2.243-4.44 3.364-6.656.443-.877.922-1.031 1.772-.606L30.3 5.6c1.2.606 1.3.913.687 2.116-1.085 2.134-2.2 4.25-3.219 6.4a4.334 4.334 0 0 0-.19 1.691c0 .109.244.28.4.335a19.392 19.392 0 0 1 12.2 11.132 1.306 1.306 0 0 0 .524.561c4.54 2.83 4.829 8.22.633 11.539a1.168 1.168 0 0 0-.416.552 19.409 19.409 0 0 1-7.252 10.363c-.136.1-.271.208-.407.316a.422.422 0 0 1 .026.153zm-7.75-34.933a6.764 6.764 0 0 0-6.845-6.972 6.77 6.77 0 0 0-7.044 6.927 6.809 6.809 0 0 0 6.853 6.972 6.792 6.792 0 0 0 7.037-6.927zm9.522 24.542c-.045.09-.109.226-.172.353a13.914 13.914 0 0 1-19.831 5.724 6.11 6.11 0 0 0-3.861-1.031c-.76.054-1.519.009-2.423.009a16.862 16.862 0 0 0 6.972 5.227 1.9 1.9 0 0 0 .714.09q5.86.014 11.711-.009a2.819 2.819 0 0 0 1.058-.2 16.862 16.862 0 0 0 8.6-8.111c.289-.57.5-1.176.732-1.718-1.202-.101-2.315-.216-3.499-.334zm-.3 12.452H11.629v2.631H34.76zm7.524-19.026a4.659 4.659 0 0 0-4.838-4.838 4.843 4.843 0 0 0-.054 9.685 4.64 4.64 0 0 0 4.894-4.847zm-25.3-26.848c4.341-.479 7.46 1.275 9.649 4.919.8-1.573 1.564-3.084 2.36-4.666l-9.712-4.856c-.769 1.564-1.51 3.029-2.297 4.603zm-6.393 12.786c-.814 1.637-1.564 3.165-2.342 4.729 3.274 1.637 6.457 3.228 9.7 4.847l2.333-4.693a8.854 8.854 0 0 1-5.634-.832 9.739 9.739 0 0 1-4.057-4.051zm6.728 20.979H2.043v2.659h15.274zM37.69 26.848c-.877-3.31-6.99-8.455-10.363-8.726-.488.995-.968 1.971-1.456 2.975a14.659 14.659 0 0 1 8.573 6.439c1.13-.245 2.188-.471 3.246-.688zm-24.2 2.478c-.9-.452-1.736-.868-2.613-1.3-.543 1.085-1.049 2.1-1.592 3.174l2.6 1.3c.558-1.076 1.055-2.071 1.607-3.174z" class="cls-1" data-name="Path 921" transform="translate(.004 .001)"/>
    <path id="Path_922" d="M24 17.078a4.1 4.1 0 0 1-3.789 3.834 4.113 4.113 0 0 1-3.911-3.879 4.145 4.145 0 0 1 3.879-3.843A4.1 4.1 0 0 1 24 17.078zm-2.017.009a1.691 1.691 0 0 0-1.845-1.881 1.719 1.719 0 0 0-1.838 1.827 1.7 1.7 0 0 0 1.861 1.867 1.661 1.661 0 0 0 1.827-1.813z" class="cls-1" data-name="Path 922" transform="translate(-1.556 -1.261)"/>
    <path id="Path_923" d="M44.2 37.078a3.393 3.393 0 0 1-3.156 3.093A3.4 3.4 0 0 1 37.97 37a3.416 3.416 0 0 1 3.12-3.056 3.408 3.408 0 0 1 3.11 3.134zM40 37a1.1 1.1 0 1 0 2.206.118 1.016 1.016 0 0 0-1.085-1.157A.969.969 0 0 0 40 37z" class="cls-1" data-name="Path 923" transform="translate(-3.63 -3.247)"/>
</svg>
