<?xml version="1.0" encoding="utf-8"?>
<!-- Generator: Adobe Illustrator 23.1.1, SVG Export Plug-In . SVG Version: 6.00 Build 0)  -->
<svg version="1.1" id="Layer_1" xmlns="http://www.w3.org/2000/svg" xmlns:xlink="http://www.w3.org/1999/xlink" x="0px" y="0px"
	 viewBox="0 0 71.1 60.6" style="enable-background:new 0 0 71.1 60.6;" xml:space="preserve">
<style type="text/css">
	.st0{fill:#FF50A0;}
</style>
<g>
	<path class="st0" d="M30.3,43.2c0.3,0,0.5-0.1,0.7-0.3s0.3-0.4,0.3-0.7c0-1.1-0.2-11.1-3.9-13.4c1-3,1.3-5.2,1-6.7
		c0.7-0.7,1.3-1.5,1.9-2.3c0.2-0.2,0.2-0.5,0.2-0.7c0-0.3-0.2-0.5-0.4-0.6c-0.4-0.3-1-0.2-1.4,0.2c-1.7,2.2-3.9,4.2-6.5,5.8
		c-0.5,0.2-0.8,0.3-1.4,0.1c-1.1-0.3-2.2-0.7-3.2-1c-0.7-0.2-1.2-0.1-1.4,0.5c-0.1,0.2-0.1,0.5,0,0.7c0.1,0.3,0.3,0.5,0.7,0.6
		c0.5,0.2,1.1,0.4,1.6,0.6c0.1,0,0.2,0,0.3,0.1c-0.8,0.4-1.8,0.5-2.7,0.7c-0.6,0.1-1,0.5-0.9,1.1c0,0.3,0.1,0.5,0.3,0.7
		s0.5,0.2,0.9,0.2c0.9-0.2,1.8-0.5,2.7-0.7l0.8-0.2c0.1,0,0.3-0.1,0.4-0.1c0,0.2,0,0.4,0,0.6c0,0.7,0,1.3,0,2c0,0.6,0.2,1,0.4,1.2
		c0.2,0.2,0.4,0.2,0.7,0.2c0.3,0,0.5-0.1,0.6-0.3c0.2-0.2,0.2-0.6,0.1-1.3c-0.2-1.5-0.1-3.5,1.7-4.5c0.5-0.3,0.9-0.6,1.4-0.9
		c0.4-0.3,0.8-0.6,1.3-0.9c0.1,1.3-0.5,3.1-1,4.5c-0.1,0.2-0.2,0.5-0.3,0.7c-1.3,3.7-3,6.5-3.6,7c-0.1,0.1-0.3,0.1-0.5,0
		c-1.1-0.2-2.5-0.5-3.9-0.8c-0.7-0.2-1.2,0-1.3,0.5c-0.1,0.2-0.1,0.5,0,0.7c0.1,0.3,0.4,0.5,0.7,0.6c0.6,0.2,1.6,0.2,2,0.7
		c-0.1,0.1-0.2,0.2-0.3,0.2c-0.8,0.3-1.6,0.5-2.3,0.7c-0.6,0.2-0.9,0.6-0.8,1.1c0,0.3,0.2,0.5,0.4,0.7s0.6,0.2,0.9,0.1
		c1.3-0.4,2.6-1,3.9-1.3c0,0.2,0,0.4,0,0.6c0,0.7,0,1.3,0.1,1.9c0.1,0.5,0.2,1.2,0.8,1.3c0.4,0.1,0.9-0.2,1.1-0.6
		c0.1-0.3,0-0.7,0-1.1c-0.2-1-0.3-2,0.1-2.9c0.3-0.6,0.7-1.2,1.1-1.7c1.4-1.8,2.4-3.8,3.1-6c0.8,1,1.3,2.2,1.6,3.4
		c0.1,0.3,0.1,0.6,0.1,0.9c0,0.2-0.1,0.5-0.2,0.7c-0.5,1.4-1.1,2.8-2.3,3.6c-0.3,0.2-0.7,0.3-0.9,0.6c-0.7,0.6-0.1,1.9,0.8,1.6
		c1.3-0.4,2.3-1.3,3.2-2.8c0.1,1.2,0.2,2.5,0.2,3.6C29.4,42.8,29.8,43.2,30.3,43.2z"/>
	<path class="st0" d="M44.1,30.1c0.4,1.1,2.4,6.5,4.3,8c0.1,0.1,0.1,0.2,0.2,0.3c0.3,1,0.5,2.2,0.2,3.5c-0.1,0.7-0.1,1,0.1,1.3
		c0.1,0.2,0.3,0.3,0.6,0.3c0.1,0,0.2,0,0.2,0c0.2,0,0.4-0.1,0.5-0.2c0.3-0.2,0.4-0.6,0.5-1.2c0.1-0.6,0.1-1.3,0.1-1.9
		c0-0.2,0-0.5,0-0.7c1.2,0.7,2.6,1,3.9,1.4c0.3,0.1,0.6,0.1,0.9-0.1c0.2-0.1,0.4-0.4,0.4-0.7c0.1-0.6-0.2-0.9-0.8-1.1
		c-0.8-0.2-1.6-0.5-2.4-0.7h-0.1c-0.1,0-0.1,0-0.2-0.1c0.2,0,0.3-0.1,0.5-0.1c0.6-0.2,1.1-0.3,1.6-0.5c0.3-0.1,0.6-0.3,0.7-0.6
		c0.1-0.2,0.1-0.5,0-0.7c-0.2-0.5-0.6-0.7-1.4-0.5c-1.3,0.3-2.5,0.6-3.8,0.8c-0.5,0.1-1-0.1-1.3-0.6c-0.3-0.6-0.7-1.3-1-1.9
		c-0.8-1.6-1.5-3.3-2.2-5.2c-0.5-1.4-0.9-2.9-1-4.5c0.4,0.4,0.9,0.8,1.4,1.1c0.7,0.4,1.8,0.9,2.3,1.5c0.7,0.8,0.8,2.6,0.6,3.6
		c-0.1,0.7,0,1,0.1,1.3c0.1,0.2,0.3,0.3,0.6,0.3s0.5,0,0.7-0.2c0.3-0.2,0.4-0.6,0.4-1.2s0-1.3,0-1.9c0-0.2,0-0.5,0-0.7
		c0.1,0.1,0.2,0.1,0.4,0.1c0.3,0.1,0.6,0.2,0.8,0.2c0.9,0.3,1.8,0.5,2.7,0.7c0.3,0.1,0.6,0,0.9-0.1c0.2-0.2,0.3-0.4,0.3-0.7
		c0-0.6-0.3-0.9-0.9-1.1c-0.8-0.2-1.6-0.4-2.3-0.6l-0.2-0.1c-0.1,0-0.1,0-0.2-0.1c0.1-0.1,0.3-0.1,0.4-0.2c0.6-0.2,1.1-0.4,1.6-0.6
		c0.3-0.1,0.5-0.3,0.7-0.6c0.1-0.2,0.1-0.5,0-0.7c-0.2-0.5-0.7-0.7-1.4-0.5c-1.2,0.4-2.5,0.7-3.7,1c-0.2,0-0.3,0.1-0.5,0
		s-0.3-0.2-0.4-0.3c-0.6-0.5-1.3-0.7-2-1.2c-1-0.7-2.8-2.3-4.5-4.5c-0.2-0.2-0.4-0.3-0.6-0.4c-0.3,0-0.5,0-0.7,0.2s-0.3,0.4-0.4,0.6
		c0,0.3,0,0.5,0.2,0.7c0.6,0.8,1.2,1.5,1.9,2.3C42.3,24.6,43.2,27.8,44.1,30.1z"/>
	<path class="st0" d="M69.8,31c-0.6-0.4-1.2-0.7-1.9-0.9c-0.5-0.2-1.1-0.3-1.5-0.6c-0.7-0.6-1-1.7-1.5-2.5c-0.4-0.7-0.9-1.5-1.4-2.3
		c-2-3.2-4.6-5.8-7.1-8.5c-0.2-0.2-0.4-0.4-0.6-0.6c-3.9-3.9-8.6-7.5-9.2-13.3C46.4,1,45.3,0,43.5,0H26.4c-0.8,0-1.9,1-2,2.3
		c-0.2,2.7-1.5,5.2-3.2,7.2c-1,1.2-2,2.2-3.1,3.3c-2.4,2.2-5,4.3-7.1,6.8c-1.1,1.3-2.1,2.5-3,3.8c-0.7,1.1-1.5,2.2-2.1,3.3
		c-0.6,1.1-0.7,2.5-2,3c-0.9,0.4-1.8,0.6-2.7,1.2c-0.8,0.6-1.2,1.7-1.1,2.7s0.8,1.9,1.3,2.8c0.3,0.5,0.6,1,0.7,1.3
		c2.5,9.5,8,12.9,12.2,14.1c3,0.9,5.8,0.7,7.3,0.5V58c0,1.4,1.2,2.6,2,2.6h22.6c1.9,0,3.1-1.2,3.1-2.6v-5.6c1.5,0.2,4.2,0.3,7.3-0.5
		c4.2-1.2,9.8-4.6,12.2-14.1c0.1-0.4,0.4-0.8,0.7-1.3c0.5-0.8,1.2-1.7,1.3-2.8C71,32.6,70.6,31.6,69.8,31z M34.6,58.4H24.1
		c-0.2,0-0.4-0.2-0.4-0.4v-6.1l4.7-1.1c0.6-0.1,1-0.7,0.8-1.3c-0.1-0.3-0.2-0.5-0.5-0.7s-0.5-0.2-0.8-0.1L22.4,50
		c-2.2,0.5-5.2,0.4-7.6-0.3c-2.9-0.9-5.5-2.7-7.3-5.1C5.5,42,5,38.9,3.6,36c-0.4-0.8-1.7-2-1.4-2.9c0.2-0.6,1.1-0.8,1.6-1
		c1.9-0.7,3-2.5,4-4.2c0.4-0.7,0.8-1.4,1.3-2.1l0.1-0.2c0.9-1.4,2-2.8,3.1-4.1c1.2-1.4,2.5-2.8,3.9-4c5-4.4,9.7-8.5,10.4-14.9
		c0-0.2,0.2-0.3,0.4-0.3h7.7L34.6,58.4C34.7,58.4,34.6,58.4,34.6,58.4z M67.8,35.1c-0.2,0.3-0.4,0.5-0.5,0.8c0,0-0.4,1.3-0.9,2.4
		c-1.9,6.1-5.3,9.9-10.3,11.3c-2.4,0.7-5.4,0.8-7.6,0.3L43,48.7c-0.3-0.1-0.6,0-0.8,0.1c-0.3,0.2-0.4,0.4-0.5,0.7
		c-0.1,0.6,0.2,1.2,0.8,1.3l4.7,1.1V58c0,0.2-0.2,0.4-0.4,0.4h-4.9h-5.3V2.2H44c0.2,0,0.3,0.1,0.4,0.3C45,9,49.7,13.1,54.7,17.4
		c2.1,1.9,4.3,4.3,6.3,7.2c0.9,1.3,1.7,2.7,2.6,4c0.8,1.3,1.6,2.7,3,3.3c0.3,0.1,0.7,0.3,1,0.4c0.4,0.2,0.9,0.3,1,0.4
		C69,33.1,68.6,33.9,67.8,35.1z"/>
</g>
</svg>
