<svg xmlns="http://www.w3.org/2000/svg" width="84.215" height="18.05" viewBox="0 0 84.215 18.05">
    <defs>
        <style>
            .cls-1{fill:#f9fafd}
        </style>
    </defs>
    <g id="Group_1974" data-name="Group 1974" transform="translate(-559 -537)">
        <g id="Group_1969" data-name="Group 1969" transform="translate(7)">
            <path id="Path_1135" d="M78.234 114.356c.073-.005.088-.07.118-.114a3.656 3.656 0 0 1 3.207-1.567 5.224 5.224 0 0 1 1.383.184 2.85 2.85 0 0 1 2.1 2.33 7.529 7.529 0 0 1 .16 1.6c.01 2.039 0 4.079.008 6.119 0 .206-.037.285-.267.281a64.469 64.469 0 0 0-2.327 0c-.193 0-.254-.046-.254-.248.008-1.853 0-3.706 0-5.559a4.471 4.471 0 0 0-.173-1.361 1.47 1.47 0 0 0-1.439-1.118 1.976 1.976 0 0 0-2.35 1.978 6.99 6.99 0 0 0-.053 1.053v5c0 .189-.04.261-.247.258-.8-.013-1.594-.009-2.391 0-.159 0-.208-.043-.208-.205q.006-4.913 0-9.825c0-.146.037-.2.192-.2q1.152.01 2.305 0c.154 0 .2.056.195.2-.008.33 0 .661 0 .991.007.067-.015.142.041.203z" class="cls-1" data-name="Path 1135" transform="translate(551.006 428.291)"/>
            <path id="Path_1138" d="M47.1 109.157a7.57 7.57 0 0 0-3.712-.366 6.352 6.352 0 0 0-4.426 2.55 8.327 8.327 0 0 0-1.477 5.188 7.435 7.435 0 0 0 .327 2.051 6.483 6.483 0 0 0 3.83 4.407 7.48 7.48 0 0 0 4.291.409 6.274 6.274 0 0 0 4.793-3.639 8.459 8.459 0 0 0 .293-6.521 6.3 6.3 0 0 0-3.919-4.079zm1.271 6.732a6.223 6.223 0 0 1-.711 3.263 3.381 3.381 0 0 1-2.972 1.752 3.505 3.505 0 0 1-2.935-1.159 4.285 4.285 0 0 1-.944-1.933 6.852 6.852 0 0 1 .314-4.282 3.7 3.7 0 0 1 6.976.625 6.159 6.159 0 0 1 .269 1.734z" class="cls-1" data-name="Path 1138" transform="translate(551.006 428.291)"/>
            <path id="Path_1139" d="M61.151 113.523a4.547 4.547 0 0 0-3.475-.787 3.192 3.192 0 0 0-2.286 1.425.081.081 0 0 1-.107.046c0-.343-.007-.693 0-1.043.005-.163-.053-.207-.211-.206-.732.007-1.465 0-2.2 0-.291 0-.291 0-.291.291v13.292c0 .072 0 .144.006.215.086-.116.215-.1.335-.1h1.785c.4 0 .479-.074.479-.477v-7.873a3.172 3.172 0 0 1 .009-.365c.01-.085.015-.179.135-.186a4.76 4.76 0 0 1 .184-1.144 2.474 2.474 0 0 1 1.029-1.489 2.317 2.317 0 0 1 3.439 1.3 5.171 5.171 0 0 1 .076 3.156 2.219 2.219 0 0 1-1.3 1.588 2.026 2.026 0 0 1-1.683 0c0 .082-.012.145-.012.207 0 .538.006 1.077 0 1.615a.24.24 0 0 0 .2.276 4.42 4.42 0 0 0 1.958.16 4.078 4.078 0 0 0 3.368-2.645 6.993 6.993 0 0 0 .1-5.09 4.325 4.325 0 0 0-1.538-2.166z" class="cls-1" data-name="Path 1139" transform="translate(551.006 428.291)"/>
            <path id="Path_1140" d="M74.174 116.625a4.911 4.911 0 0 0-2.424-3.372 5.08 5.08 0 0 0-3.025-.544 4.846 4.846 0 0 0-3.889 2.411 5.9 5.9 0 0 0-.439 5.068 4.548 4.548 0 0 0 3 2.981 6.679 6.679 0 0 0 2.358.283 4.57 4.57 0 0 0 4.344-3.265c.046-.147 0-.175-.13-.174h-2.154a.2.2 0 0 0-.211.138 1.537 1.537 0 0 1-.462.586 2.9 2.9 0 0 1-2.688.483 1.913 1.913 0 0 1-1.334-1.213 3.871 3.871 0 0 1-.228-1.026c-.019-.178.03-.237.216-.235 1.171.007 2.341 0 3.512 0h3.512c.154 0 .214-.038.218-.2a7.438 7.438 0 0 0-.176-1.921zm-2.864.349H69.2c-.695 0-1.391-.008-2.087.005-.212 0-.24-.076-.206-.253A2.225 2.225 0 0 1 69.5 114.8c1.192.09 1.742.834 1.978 2.059.022.161-.096.115-.168.115z" class="cls-1" data-name="Path 1140" transform="translate(551.006 428.291)"/>
            <path id="Path_1141" d="M25.146 115.33c-.009-.516 0-1.034 0-1.551v-4.545c0-.179-.049-.233-.228-.227-.387.013-.776.012-1.163 0a.225.225 0 0 0-.258.187q-.75 2.207-1.511 4.41c-.054.159-.111.316-.182.517l-.089-.246q-.826-2.34-1.649-4.68c-.048-.137-.1-.192-.255-.188-.4.012-.805.011-1.206 0-.157 0-.214.033-.208.2.012.395 0 .79 0 1.185v4.911c0 .164.033.231.21.218a4.512 4.512 0 0 1 .668 0c.175.012.211-.052.21-.217-.006-1.493 0-2.987 0-4.48a.467.467 0 0 1 .018-.228c.065.021.058.079.074.123.554 1.536 1.11 3.072 1.657 4.611a.232.232 0 0 0 .274.19 3.332 3.332 0 0 1 .538 0c.16.014.222-.053.273-.2q.814-2.286 1.64-4.567c.02-.056.014-.128.1-.162V115.273c0 .2.061.257.252.243a5.156 5.156 0 0 1 .646 0c.143.013.192-.033.189-.186z" class="cls-1" data-name="Path 1141" transform="translate(551.006 428.291)"/>
            <path id="Path_1142" d="M12.846 115.521c.142 0 .2-.051.239-.179.155-.462.331-.916.485-1.378a.213.213 0 0 1 .245-.171c.739.006 1.479.008 2.218 0a.229.229 0 0 1 .261.185c.154.461.32.919.484 1.377.027.077.036.168.161.165.363-.006.727 0 1.119 0l-.471-1.225q-.976-2.537-1.949-5.073c-.059-.155-.129-.226-.307-.213a5.894 5.894 0 0 1-.775 0 .256.256 0 0 0-.294.2c-.42 1.111-.85 2.219-1.275 3.329-.377.981-.752 1.963-1.141 2.98.354 0 .678-.008 1 .003zm1.137-2.717q.466-1.314.929-2.63h.05l.4 1.152c.167.48.331.961.5 1.439.044.122.049.177-.112.174-.552-.008-1.105 0-1.658 0-.087-.006-.152-.012-.109-.139z" class="cls-1" data-name="Path 1142" transform="translate(551.006 428.291)"/>
            <path id="Path_1143" d="M29.671 113.791a.256.256 0 0 1 .286.211c.153.455.321.9.473 1.359a.2.2 0 0 0 .229.16c.273-.01.546-.014.818 0 .186.01.235-.021.159-.215q-1.117-2.871-2.223-5.748c-.069-.179-.083-.43-.232-.513s-.375-.018-.568-.018v-.016a2.938 2.938 0 0 1-.387 0c-.184-.025-.257.06-.318.223-.463 1.225-.934 2.447-1.4 3.67l-.916 2.385c-.089.231-.088.231.167.232s.5-.008.754 0c.132.006.184-.045.225-.166.156-.461.329-.916.483-1.377a.226.226 0 0 1 .259-.186c.727.008 1.459.008 2.191-.001zm-2.018-1.025c.163-.474.331-.946.5-1.418.139-.4.279-.791.441-1.246l.987 2.83h-1.873c-.161-.002-.074-.109-.055-.166z" class="cls-1" data-name="Path 1143" transform="translate(551.006 428.291)"/>
            <path id="Path_1144" d="M6.088 117.038c0-.373 0-.361-.373-.377-.2-.009-.246.056-.246.25.008 1.659.005 3.318.005 4.977v.282c-.083-.109-.128-.162-.167-.219q-1.655-2.4-3.307-4.8c-.343-.5-.341-.5-.943-.479-.021 0-.042.006-.063.009v6.467c.121 0 .244 0 .365.013.187.024.24-.041.239-.234-.008-1.659 0-3.318 0-4.977a.439.439 0 0 1 .02-.229c.066.02.083.079.114.124 1.136 1.648 2.28 3.29 3.4 4.95a.714.714 0 0 0 .731.373c.188-.015.235-.056.234-.243-.012-1.966-.009-3.925-.009-5.887z" class="cls-1" data-name="Path 1144" transform="translate(551.006 428.291)"/>
            <path id="Path_1145" d="M9.384 115.632a3.147 3.147 0 0 0 1.365-.061 1.546 1.546 0 0 0 1.184-1.231 2.727 2.727 0 0 0 .084-.595c.008-1.529.005-3.059.01-4.588 0-.113-.036-.15-.148-.148a10.67 10.67 0 0 1-.8 0c-.165-.008-.2.05-.2.207.008.769 0 1.537 0 2.305v1.982c0 .143-.006.287-.019.43a.786.786 0 0 1-.862.813.79.79 0 0 1-.9-.8 3.7 3.7 0 0 1-.017-.516c0-.136-.034-.193-.18-.187-.266.01-.532.008-.8 0-.128 0-.176.033-.174.169a6.417 6.417 0 0 0 .043.665 1.693 1.693 0 0 0 1.414 1.555z" class="cls-1" data-name="Path 1145" transform="translate(551.006 428.291)"/>
            <path id="Path_1146" d="M19.66 118.452a.249.249 0 0 0-.3.22c-.285.983-.581 1.964-.874 2.945-.083.278-.169.555-.268.88-.037-.113-.059-.173-.076-.234l-.985-3.45c-.1-.356-.1-.344-.482-.361a.281.281 0 0 0-.34.249c-.325 1.18-.663 2.357-1 3.534-.019.068-.014.155-.1.212-.024-.072-.046-.132-.064-.192l-1.022-3.417c-.116-.39-.118-.38-.531-.385-.177 0-.179.053-.132.2.443 1.362.879 2.726 1.32 4.089.136.422.138.413.577.421.155 0 .208-.056.247-.194.172-.621.354-1.239.534-1.858l.541-1.851h.044l1.044 3.565c.1.337.1.321.455.343.223.014.305-.068.369-.272.426-1.36.866-2.715 1.3-4.072.127-.369.128-.358-.257-.372z" class="cls-1" data-name="Path 1146" transform="translate(551.006 428.291)"/>
            <path id="Path_1147" d="M8.739 118.323a1.867 1.867 0 0 0-1.8 1.033 3.228 3.228 0 0 0-.124 2.687 1.8 1.8 0 0 0 1.42 1.21 2.742 2.742 0 0 0 .834.024 1.849 1.849 0 0 0 1.664-1.533c.012-.043.04-.117-.036-.122a2.115 2.115 0 0 0-.45 0c-.113.016-.091.147-.123.228a1.394 1.394 0 0 1-1.361.968 1.421 1.421 0 0 1-1.384-.878 2.686 2.686 0 0 1-.207-.742c-.028-.16 0-.232.19-.228.53.012 1.062 0 1.593 0h1.658c.131 0 .173-.039.171-.171a3.15 3.15 0 0 0-.292-1.376 1.835 1.835 0 0 0-1.753-1.1zm1.3 2.166c-.459-.007-.918 0-1.376 0H7.329c-.126 0-.173-.019-.142-.169a2.081 2.081 0 0 1 .567-1.132 1.385 1.385 0 0 1 2.037.132 2.023 2.023 0 0 1 .408.978c.024.136-.007.193-.158.191z" class="cls-1" data-name="Path 1147" transform="translate(551.006 428.291)"/>
            <path id="Path_1148" d="M35.217 126.274v-16.78-.237c.008-.162-.075-.212-.225-.21s-.213.062-.207.207v17.103a.772.772 0 0 1-.036.36 1.1 1.1 0 0 0 .435.03c.08 0 .091-.049.076-.114a.689.689 0 0 1-.043-.359z" class="cls-1" data-name="Path 1148" transform="translate(551.006 428.291)"/>
            <path id="Path_1149" d="M29.708 120.067c.468-.39.925-.795 1.385-1.195.143-.124.283-.25.451-.4-.438-.042-.822-.068-1.111.3a2.814 2.814 0 0 1-.385.343l-1.859 1.623V118.4c0-.509-.008-1.019.005-1.529 0-.177-.057-.23-.219-.207a.349.349 0 0 1-.107 0c-.2-.034-.247.051-.246.245.007 1.96 0 3.921 0 5.881 0 .367 0 .355.36.368.183.006.209-.065.207-.222-.009-.467 0-.934-.006-1.4a.289.289 0 0 1 .118-.257c.219-.174.44-.347.644-.538.131-.122.2-.114.3.033.529.743 1.067 1.478 1.6 2.215.041.057.068.148.141.152.221.012.444 0 .695 0-.688-.951-1.345-1.866-2.01-2.775-.084-.122-.095-.189.037-.299z" class="cls-1" data-name="Path 1149" transform="translate(551.006 428.291)"/>
            <path id="Path_1150" d="M22.267 118.322a2.057 2.057 0 0 0-2.042 1.265 2.969 2.969 0 0 0 .032 2.521 2.184 2.184 0 0 0 3.577.467 2.766 2.766 0 0 0 .585-1.76 3.326 3.326 0 0 0-.156-1 2.1 2.1 0 0 0-1.996-1.493zm1.088 3.951a1.5 1.5 0 0 1-2.273.056 2.419 2.419 0 0 1 .023-3.062 1.51 1.51 0 0 1 2.338.19 2.629 2.629 0 0 1 .4 1.61 2.062 2.062 0 0 1-.488 1.206z" class="cls-1" data-name="Path 1150" transform="translate(551.006 428.291)"/>
            <path id="Path_1151" d="M12.884 122.724a.082.082 0 0 0-.022 0c-.52.022-.659-.109-.659-.626v-2.519c0-.206-.092-.47.043-.6s.384-.031.584-.034c.339-.006.335 0 .323-.342 0-.11-.036-.153-.148-.15-.216.006-.431 0-.646 0-.122 0-.164-.037-.161-.161.008-.287 0-.574 0-.861 0-.387 0-.378-.385-.384-.159 0-.19.055-.186.2.009.345 0 .69.005 1.034 0 .13-.036.181-.169.174-.172-.009-.345 0-.517 0-.056 0-.11-.007-.134.072-.083.273.013.415.288.415a2.378 2.378 0 0 0 .28 0c.187-.021.262.033.255.243-.016.524-.005 1.048-.005 1.572h.005c0 .553-.012 1.106 0 1.658a.716.716 0 0 0 .736.784 3.474 3.474 0 0 0 .645 0c.046 0 .117.013.121-.056a1.022 1.022 0 0 0-.009-.383c-.028-.098-.157-.025-.244-.036z" class="cls-1" data-name="Path 1151" transform="translate(551.006 428.291)"/>
            <path id="Path_1152" d="M27.155 118.519c.01-.094-.034-.124-.125-.123a1.861 1.861 0 0 0-.529.078 1.908 1.908 0 0 0-1.145 1c0-.263-.018-.527 0-.788.022-.233-.1-.233-.267-.231s-.275-.017-.273.224c.014 1.377.007 2.755.007 4.133 0 .346 0 .336.357.347.175.006.213-.054.211-.218-.008-.746-.007-1.492 0-2.239a1.63 1.63 0 0 1 1.425-1.715c.347-.06.347-.06.337-.424a.206.206 0 0 1 .002-.044z" class="cls-1" data-name="Path 1152" transform="translate(551.006 428.291)"/>
        </g>
    </g>
</svg>
